<svg width="60" height="60" viewBox="0 0 60 60" fill="none" xmlns="http://www.w3.org/2000/svg">
<path d="M30.3681 1.41573C30.2515 1.05991 29.7482 1.05991 29.6316 1.41573L28.9177 3.59487C28.8656 3.75408 28.717 3.86174 28.5495 3.86174L26.2461 3.86174C25.87 3.86174 25.7144 4.34371 26.0196 4.56362L27.8775 5.90248C28.0145 6.00115 28.0718 6.1771 28.0192 6.33749L27.3083 8.50775C27.1915 8.8642 27.5987 9.16205 27.903 8.94277L29.7733 7.59506C29.9086 7.49757 30.0911 7.49757 30.2264 7.59506L32.0966 8.94277C32.4009 9.16205 32.8082 8.8642 32.6914 8.50775L31.9804 6.33749C31.9279 6.1771 31.9852 6.00115 32.1222 5.90248L33.9801 4.56362C34.2853 4.34371 34.1297 3.86174 33.7536 3.86174L31.4502 3.86174C31.2827 3.86174 31.1341 3.75408 31.082 3.59487L30.3681 1.41573Z" fill="#0089C4"/>
<path d="M30.3681 50.4991C30.2515 50.1433 29.7482 50.1433 29.6316 50.4991L28.9177 52.6782C28.8656 52.8374 28.717 52.9451 28.5495 52.9451L26.2461 52.9451C25.87 52.9451 25.7144 53.4271 26.0196 53.647L27.8775 54.9858C28.0145 55.0845 28.0718 55.2604 28.0192 55.4208L27.3083 57.5911C27.1915 57.9475 27.5987 58.2454 27.903 58.0261L29.7733 56.6784C29.9086 56.5809 30.0911 56.5809 30.2264 56.6784L32.0966 58.0261C32.4009 58.2454 32.8082 57.9475 32.6914 57.5911L31.9804 55.4208C31.9279 55.2604 31.9852 55.0845 32.1222 54.9858L33.9801 53.647C34.2853 53.4271 34.1297 52.9451 33.7536 52.9451L31.4502 52.9451C31.2827 52.9451 31.1341 52.8374 31.082 52.6782L30.3681 50.4991Z" fill="#0089C4"/>
<path d="M18.6475 47.9157C18.5309 47.5599 18.0276 47.5599 17.911 47.9157L17.1971 50.0949C17.145 50.2541 16.9964 50.3617 16.8289 50.3617L14.5255 50.3617C14.1494 50.3617 13.9938 50.8437 14.299 51.0636L16.157 52.4025C16.2939 52.5011 16.3512 52.6771 16.2987 52.8375L15.5877 55.0078C15.4709 55.3642 15.8782 55.6621 16.1825 55.4428L18.0527 54.0951C18.188 53.9976 18.3705 53.9976 18.5058 54.0951L20.3761 55.4428C20.6804 55.6621 21.0876 55.3642 20.9708 55.0078L20.2599 52.8375C20.2073 52.6771 20.2646 52.5011 20.4016 52.4025L22.2595 51.0636C22.5647 50.8437 22.4092 50.3617 22.033 50.3617L19.7296 50.3617C19.5621 50.3617 19.4135 50.2541 19.3614 50.0949L18.6475 47.9157Z" fill="#0089C4"/>
<path d="M9.5313 38.8741C9.41473 38.5183 8.91137 38.5183 8.79481 38.8741L8.08092 41.0532C8.02877 41.2124 7.88021 41.3201 7.71268 41.3201L5.40931 41.3201C5.03316 41.3201 4.87759 41.8021 5.18277 42.022L7.04074 43.3608C7.17767 43.4595 7.23499 43.6354 7.18244 43.7958L6.47147 45.9661C6.3547 46.3225 6.76195 46.6204 7.06626 46.4011L8.93651 45.0534C9.0718 44.9559 9.2543 44.9559 9.38959 45.0534L11.2598 46.4011C11.5642 46.6204 11.9714 46.3225 11.8546 45.9661L11.1437 43.7958C11.0911 43.6354 11.1484 43.4595 11.2854 43.3608L13.1433 42.022C13.4485 41.8021 13.2929 41.3201 12.9168 41.3201L10.6134 41.3201C10.4459 41.3201 10.2973 41.2124 10.2452 41.0532L9.5313 38.8741Z" fill="#0089C4"/>
<path d="M5.95024 27.2491C5.83367 26.8933 5.33032 26.8933 5.21375 27.2491L4.49987 29.4282C4.44771 29.5874 4.29915 29.6951 4.13162 29.6951L1.82825 29.6951C1.4521 29.6951 1.29654 30.1771 1.60171 30.397L3.45969 31.7358C3.59662 31.8345 3.65393 32.0104 3.60139 32.1708L2.89042 34.3411C2.77364 34.6975 3.18089 34.9954 3.4852 34.7761L5.35545 33.4284C5.49075 33.3309 5.67324 33.3309 5.80854 33.4284L7.67879 34.7761C7.9831 34.9954 8.39035 34.6975 8.27358 34.3411L7.5626 32.1708C7.51006 32.0104 7.56737 31.8345 7.7043 31.7358L9.56228 30.397C9.86745 30.1771 9.71189 29.6951 9.33574 29.6951L7.03237 29.6951C6.86484 29.6951 6.71628 29.5874 6.66412 29.4282L5.95024 27.2491Z" fill="#0089C4"/>
<path d="M8.22856 14.3324C8.112 13.9766 7.60864 13.9766 7.49207 14.3324L6.77819 16.5115C6.72603 16.6707 6.57747 16.7784 6.40995 16.7784L4.10657 16.7784C3.73042 16.7784 3.57486 17.2604 3.88003 17.4803L5.73801 18.8191C5.87494 18.9178 5.93225 19.0938 5.87971 19.2541L5.16874 21.4244C5.05196 21.7809 5.45921 22.0787 5.76352 21.8594L7.63377 20.5117C7.76907 20.4142 7.95156 20.4142 8.08686 20.5117L9.95711 21.8594C10.2614 22.0787 10.6687 21.7809 10.5519 21.4244L9.84092 19.2541C9.78838 19.0938 9.84569 18.9178 9.98262 18.8191L11.8406 17.4803C12.1458 17.2604 11.9902 16.7784 11.6141 16.7784L9.31069 16.7784C9.14316 16.7784 8.9946 16.6707 8.94244 16.5115L8.22856 14.3324Z" fill="#0089C4"/>
<path d="M17.3438 3.99907C17.2272 3.64325 16.7239 3.64325 16.6073 3.99907L15.8934 6.17821C15.8413 6.33742 15.6927 6.44508 15.5252 6.44508L13.2218 6.44508C12.8457 6.44508 12.6901 6.92705 12.9953 7.14696L14.8532 8.48582C14.9902 8.58449 15.0475 8.76044 14.9949 8.92084L14.284 11.0911C14.1672 11.4475 14.5744 11.7454 14.8788 11.5261L16.749 10.1784C16.8843 10.0809 17.0668 10.0809 17.2021 10.1784L19.0723 11.5261C19.3767 11.7454 19.7839 11.4475 19.6671 11.0911L18.9562 8.92084C18.9036 8.76045 18.9609 8.58449 19.0979 8.48582L20.9558 7.14696C21.261 6.92705 21.1054 6.44508 20.7293 6.44508L18.4259 6.44508C18.2584 6.44508 18.1098 6.33742 18.0577 6.17821L17.3438 3.99907Z" fill="#0089C4"/>
<path d="M43.3908 3.99907C43.2742 3.64325 42.7709 3.64325 42.6543 3.99907L41.9404 6.17821C41.8883 6.33742 41.7397 6.44508 41.5722 6.44508L39.2688 6.44508C38.8927 6.44508 38.7371 6.92705 39.0423 7.14696L40.9002 8.48582C41.0372 8.58449 41.0945 8.76044 41.0419 8.92084L40.331 11.0911C40.2142 11.4475 40.6214 11.7454 40.9258 11.5261L42.796 10.1784C42.9313 10.0809 43.1138 10.0809 43.2491 10.1784L45.1193 11.5261C45.4237 11.7454 45.8309 11.4475 45.7141 11.0911L45.0032 8.92084C44.9506 8.76045 45.0079 8.58449 45.1449 8.48582L47.0028 7.14696C47.308 6.92705 47.1524 6.44508 46.7763 6.44508L44.4729 6.44508C44.3054 6.44508 44.1568 6.33742 44.1047 6.17821L43.3908 3.99907Z" fill="#0089C4"/>
<path d="M52.5069 13.0407C52.3903 12.6849 51.887 12.6849 51.7704 13.0407L51.0565 15.2199C51.0044 15.3791 50.8558 15.4867 50.6883 15.4867L48.3849 15.4867C48.0087 15.4867 47.8532 15.9687 48.1584 16.1886L50.0163 17.5275C50.1533 17.6261 50.2106 17.8021 50.158 17.9625L49.4471 20.1328C49.3303 20.4892 49.7375 20.7871 50.0418 20.5678L51.9121 19.2201C52.0474 19.1226 52.2299 19.1226 52.3652 19.2201L54.2354 20.5678C54.5397 20.7871 54.947 20.4892 54.8302 20.1328L54.1192 17.9625C54.0667 17.8021 54.124 17.6261 54.2609 17.5275L56.1189 16.1886C56.4241 15.9687 56.2685 15.4867 55.8924 15.4867L53.589 15.4867C53.4215 15.4867 53.2729 15.3791 53.2208 15.2199L52.5069 13.0407Z" fill="#0089C4"/>
<path d="M54.7862 25.9574C54.6696 25.6016 54.1663 25.6016 54.0497 25.9574L53.3358 28.1365C53.2837 28.2957 53.1351 28.4034 52.9676 28.4034L50.6642 28.4034C50.288 28.4034 50.1325 28.8854 50.4376 29.1053L52.2956 30.4441C52.4326 30.5428 52.4899 30.7188 52.4373 30.8791L51.7264 33.0494C51.6096 33.4059 52.0168 33.7037 52.3211 33.4844L54.1914 32.1367C54.3267 32.0392 54.5092 32.0392 54.6445 32.1367L56.5147 33.4844C56.819 33.7037 57.2263 33.4059 57.1095 33.0494L56.3985 30.8791C56.346 30.7188 56.4033 30.5428 56.5402 30.4441L58.3982 29.1053C58.7034 28.8854 58.5478 28.4034 58.1717 28.4034L55.8683 28.4034C55.7008 28.4034 55.5522 28.2957 55.5001 28.1365L54.7862 25.9574Z" fill="#0089C4"/>
<path d="M52.8321 38.8741C52.7155 38.5183 52.2122 38.5183 52.0956 38.8741L51.3817 41.0532C51.3295 41.2124 51.181 41.3201 51.0135 41.3201L48.7101 41.3201C48.3339 41.3201 48.1784 41.8021 48.4835 42.022L50.3415 43.3608C50.4785 43.4595 50.5358 43.6354 50.4832 43.7958L49.7723 45.9661C49.6555 46.3225 50.0627 46.6204 50.367 46.4011L52.2373 45.0534C52.3726 44.9559 52.5551 44.9559 52.6904 45.0534L54.5606 46.4011C54.8649 46.6204 55.2722 46.3225 55.1554 45.9661L54.4444 43.7958C54.3919 43.6354 54.4492 43.4595 54.5861 43.3608L56.4441 42.022C56.7493 41.8021 56.5937 41.3201 56.2176 41.3201L53.9142 41.3201C53.7467 41.3201 53.5981 41.2124 53.546 41.0532L52.8321 38.8741Z" fill="#0089C4"/>
<path d="M43.3908 47.9157C43.2742 47.5599 42.7709 47.5599 42.6543 47.9157L41.9404 50.0949C41.8883 50.2541 41.7397 50.3617 41.5722 50.3617L39.2688 50.3617C38.8927 50.3617 38.7371 50.8437 39.0423 51.0636L40.9002 52.4025C41.0372 52.5011 41.0945 52.6771 41.0419 52.8375L40.331 55.0078C40.2142 55.3642 40.6214 55.6621 40.9258 55.4428L42.796 54.0951C42.9313 53.9976 43.1138 53.9976 43.2491 54.0951L45.1193 55.4428C45.4237 55.6621 45.8309 55.3642 45.7141 55.0078L45.0032 52.8375C44.9506 52.6771 45.0079 52.5011 45.1449 52.4025L47.0028 51.0636C47.308 50.8437 47.1524 50.3617 46.7763 50.3617L44.4729 50.3617C44.3054 50.3617 44.1568 50.2541 44.1047 50.0949L43.3908 47.9157Z" fill="#0089C4"/>
</svg>
