<svg width="51" height="55" viewBox="0 0 51 55" fill="none" xmlns="http://www.w3.org/2000/svg">
<path d="M16.429 47.3554C16.0763 47.3554 15.7235 47.3554 15.3203 47.3041C14.1109 47.2015 13.3045 46.7911 12.8006 46.1241C11.8935 44.944 12.2966 43.2509 13.1533 42.2761C13.7077 41.6092 15.5219 41.0448 17.8401 40.3778C18.6464 40.1213 19.352 39.9674 19.6543 39.8134C19.8559 39.7108 20.1079 39.8134 20.1583 40.0187C20.2591 40.2239 20.1583 40.4804 19.9567 40.5317C19.6039 40.6857 18.8984 40.8909 18.0417 41.1474C16.5802 41.5579 14.1613 42.2761 13.7077 42.7892C13.0526 43.5588 12.8006 44.8414 13.4053 45.611C13.7581 46.0728 14.4132 46.3806 15.3707 46.4832C17.4873 46.6884 19.6543 46.1754 21.7205 45.6623C22.1237 45.5597 22.5269 45.4571 22.93 45.3545C25.3994 44.7388 28.2719 44.3284 30.8421 45.5084C31.0437 45.611 31.1445 45.8676 31.0437 46.0728C30.9429 46.278 30.6909 46.3806 30.4893 46.278C28.1711 45.2006 25.4498 45.611 23.1316 46.1754C22.7284 46.278 22.3253 46.3806 21.9221 46.4832C20.1079 46.8937 18.2937 47.3554 16.429 47.3554Z" fill="#C32D1F"/>
<path d="M12.5989 44.4823C12.5485 44.4823 12.5485 44.4823 12.4981 44.4823C12.0446 44.3797 11.7422 44.3284 11.4398 44.2771C9.67598 43.9179 9.62559 43.8666 6.95464 40.3265C6.50108 39.7108 5.99713 39.0438 5.34199 38.223C3.88053 36.3246 2.0663 35.9142 1.25998 36.2733C0.907208 36.4272 0.705627 36.7351 0.806418 37.1455C0.856813 37.3508 0.705627 37.556 0.453651 37.6073C0.25207 37.6073 0.0504889 37.4534 9.36016e-05 37.1968C-0.100697 36.4272 0.25207 35.7603 0.957604 35.4524C2.16709 34.9394 4.33409 35.555 5.99713 37.6586C6.60187 38.4795 7.15622 39.1978 7.60978 39.7621C10.1799 43.1483 10.1799 43.1483 11.591 43.4049C11.8934 43.4562 12.2461 43.5075 12.6997 43.6614C12.9013 43.7127 13.0525 43.9179 13.0021 44.1744C12.9517 44.3284 12.8005 44.4823 12.5989 44.4823Z" fill="#C32D1F"/>
<path d="M15.4714 41.917C15.421 41.917 15.3202 41.917 15.2698 41.8657C14.5643 41.4039 13.7076 41.1474 12.8005 40.7882C11.1878 40.2239 9.37361 39.6082 7.96254 38.0177C7.55938 37.556 7.257 37.1455 7.00503 36.7351C6.45068 35.9655 5.94673 35.2472 4.63645 34.375C4.43487 34.2724 4.38447 34.0159 4.53566 33.8106C4.63645 33.6054 4.88843 33.5541 5.09001 33.708C6.50108 34.6828 7.05542 35.4524 7.66017 36.2733C7.91214 36.6325 8.21451 37.0429 8.56728 37.4534C9.82716 38.8899 11.4902 39.4543 13.0525 40.0187C14.01 40.3265 14.9171 40.6856 15.673 41.1474C15.8746 41.25 15.925 41.5065 15.8242 41.7118C15.7234 41.8144 15.6226 41.917 15.4714 41.917Z" fill="#C32D1F"/>
<path d="M50.4962 33.6054C50.4962 33.6054 40.0644 36.0681 38.0485 35.6576C35.176 35.042 32.9082 34.4263 30.0357 35.3498C28.5742 35.8629 26.7096 37.0429 25.3489 37.8638C22.678 39.5056 22.8796 39.2491 21.0653 39.8647C18.8479 39.2491 16.3282 38.4795 14.262 37.2481C11.6414 35.6576 9.02087 33.8106 8.21455 33.3489C6.14834 32.1175 5.59399 33.2463 4.73727 33.9645C3.67897 33.2463 0.957629 33.1949 1.2096 35.4011C1.26 36.0681 0.403281 35.7602 0.30249 37.0942C0.30249 39.403 5.24123 44.6362 9.27285 47.8685C13.1029 49.8181 19.4527 53.3069 24.8954 54.5382C27.4151 55.1026 37.6454 50.4851 44.0456 48.1763C47.8252 46.8423 46.8173 47.8172 49.6395 47.2528C51.0001 45.9701 50.4962 33.6054 50.4962 33.6054Z" fill="#F8F8F8"/>
<path d="M25.3994 55C25.1978 55 24.9963 55 24.7947 54.9487C19.9063 53.8199 14.2117 50.8955 10.432 48.9459C9.92808 48.6894 9.47452 48.4841 9.07136 48.2276L9.02096 48.1763C5.19092 45.1492 -0.150976 39.6595 0.000209621 37.1455C0.0506049 36.1707 0.504162 35.8629 0.756139 35.6576C0.806534 35.6063 0.856929 35.555 0.907324 35.555C0.907324 35.555 0.907324 35.555 0.907324 35.5037C0.806534 34.6315 1.10891 33.9645 1.76404 33.5541C2.62076 33.041 3.93104 33.1436 4.78776 33.5541C4.83815 33.5028 4.88855 33.4515 4.93895 33.4002C5.64448 32.7332 6.5012 31.861 8.46661 33.0923C8.76898 33.2463 9.27294 33.6054 9.92808 34.0158C11.1376 34.8367 12.8006 35.9655 14.514 36.9403C16.3787 38.069 18.7976 38.8386 21.0654 39.5056C21.4182 39.403 21.6702 39.3004 21.8718 39.2491C22.7285 38.9412 23.0812 38.8386 25.097 37.6073L25.349 37.4533C26.6593 36.6324 28.4231 35.5037 29.8846 35.042C32.6563 34.1185 34.8737 34.6315 37.4439 35.1959L38.099 35.3498C39.6613 35.7089 47.4725 33.9645 50.3451 33.2976C50.4459 33.2463 50.597 33.2976 50.6978 33.3489C50.7986 33.4002 50.849 33.5541 50.849 33.6567C50.9498 35.7602 51.2522 46.2267 49.8915 47.6119C49.8411 47.6632 49.7403 47.7145 49.6899 47.7145C48.5308 47.9198 47.9765 47.9198 47.4725 47.8685C46.8174 47.8172 46.3135 47.8171 44.1465 48.5867C42.3826 49.2024 40.3164 50.0233 38.1494 50.8955C32.8579 52.9991 27.7176 55 25.3994 55ZM9.47452 47.5606C9.87768 47.7658 10.3312 48.0224 10.7848 48.2276C14.514 50.1772 20.1583 53.1017 24.9459 54.1791C26.6593 54.5895 32.6059 52.1782 37.847 50.1259C40.014 49.2537 42.0802 48.4841 43.8441 47.8171C46.1623 46.9963 46.767 46.9963 47.5229 47.0476C47.9261 47.0476 48.4301 47.0989 49.3876 46.9449C50.1435 45.8162 50.2443 39.0438 50.0427 34.1698C47.8253 34.6828 39.7621 36.4785 37.8974 36.1194L37.3431 35.9142C34.7729 35.3498 32.7067 34.888 30.187 35.7602C28.8263 36.222 27.1129 37.2994 25.853 38.069L25.601 38.2229C23.4844 39.5569 23.0812 39.6595 22.1741 39.9673C21.9221 40.0699 21.6198 40.1213 21.267 40.2752C21.1662 40.3265 21.1158 40.3265 21.015 40.2752C18.6465 39.6082 16.1267 38.7873 14.1109 37.6073C12.3974 36.5811 10.7344 35.4524 9.47452 34.6315C8.81938 34.2211 8.31543 33.8619 8.06345 33.708C6.60199 32.8358 6.14843 33.2976 5.49329 33.9132C5.34211 34.0671 5.24132 34.1698 5.09013 34.3237C4.93895 34.4263 4.73736 34.4263 4.63657 34.3237C4.03183 33.9132 2.87274 33.7593 2.2176 34.1698C1.86483 34.4263 1.66325 34.7854 1.76404 35.3498C1.81444 35.8629 1.51207 36.1194 1.31049 36.2733C1.10891 36.4272 0.907324 36.5811 0.856929 37.1455C0.705743 39.0951 5.19092 44.0718 9.47452 47.5606Z" fill="#C32D1F"/>
<path d="M18.8983 46.2267C17.4872 46.2267 16.3785 45.8675 15.5218 44.7388C14.6147 43.5075 15.2194 42.4301 15.9753 41.5065C16.5297 40.8396 18.3439 40.2752 20.6621 39.6082C21.4684 39.3517 22.174 39.1978 22.4763 39.0439C22.6779 38.9412 22.9299 39.0439 22.9803 39.2491C23.0811 39.4543 22.9803 39.7108 22.7787 39.7621C22.4259 39.9161 21.7204 40.1213 20.8637 40.3778C19.4022 40.7883 16.9832 41.5065 16.5297 42.0196C15.7234 42.9944 15.6226 43.5588 16.0761 44.2258C17.336 45.8675 19.4022 45.5084 22.5771 44.8927C24.5929 44.5336 27.0623 44.0718 29.8844 44.0718C30.086 44.0718 30.2876 44.2771 30.2876 44.4823C30.2876 44.6875 30.086 44.8927 29.8844 44.8927C27.1127 44.8927 24.7945 45.3032 22.7283 45.7136C21.3172 46.0215 20.007 46.2267 18.8983 46.2267Z" fill="#C32D1F"/>
<path d="M16.5802 45.611C16.5298 45.611 16.4795 45.611 16.4291 45.5597C12.6494 43.7127 9.22254 41.4552 6.50119 39.0438C6.35001 38.8899 6.14842 38.736 5.94684 38.5308C4.83815 37.5047 2.77194 35.555 1.36088 36.1194C1.15929 36.222 0.907319 36.1194 0.856923 35.9142C0.756133 35.709 0.856923 35.4524 1.0585 35.4011C2.92313 34.6315 5.14052 36.7351 6.50119 37.9664C6.70277 38.1716 6.85396 38.3256 7.00514 38.4282C9.67609 40.7883 13.0526 42.9944 16.7314 44.7901C16.933 44.8927 17.0338 45.1493 16.933 45.3545C16.8322 45.5597 16.681 45.611 16.5802 45.611Z" fill="#C32D1F"/>
<path d="M16.5802 41.917C16.5298 41.917 16.5298 41.917 16.4794 41.917C13.4557 41.1987 10.3312 38.6847 7.8114 36.7351C6.55152 35.709 5.44282 34.8368 4.5861 34.375C4.38452 34.2724 4.33413 34.0159 4.43492 33.8106C4.53571 33.6054 4.78768 33.5541 4.98926 33.6567C5.89638 34.1698 7.00508 35.042 8.31535 36.0681C10.7847 38.0177 13.8084 40.4291 16.681 41.0961C16.8825 41.1474 17.0337 41.3526 16.9833 41.6091C16.8825 41.7631 16.7314 41.917 16.5802 41.917Z" fill="#C32D1F"/>
<path d="M10.9861 10.056C13.2035 9.54292 15.1185 8.10635 16.328 6.36195C17.5375 4.61754 18.1926 2.514 18.495 0.461761C18.7974 2.00094 19.1501 3.59143 19.7045 5.1306C20.4604 7.33676 21.5187 9.02986 24.6936 10.0047C21.0651 11.9543 18.6462 15.6483 18.4446 19.4963C18.1926 17.444 17.8902 15.2892 16.6304 13.5448C15.4713 11.903 13.4051 10.7743 10.9861 10.056Z" fill="#C32D1F"/>
<path d="M18.4447 19.9067C18.2431 19.9067 18.0919 19.7528 18.0415 19.5476C17.7895 17.6493 17.5376 15.4944 16.3281 13.8013C15.3202 12.3647 13.4555 11.236 10.8854 10.4664C10.7342 10.4151 10.583 10.2612 10.583 10.056C10.583 9.85075 10.7342 9.69683 10.8854 9.69683C12.8508 9.23507 14.7154 7.95243 15.9753 6.15672C17.0336 4.61754 17.7391 2.77052 18.0919 0.410448C18.1423 0.153918 18.2935 0 18.4951 0C18.6966 0 18.8478 0.153918 18.8982 0.359142C19.1502 1.89832 19.5534 3.48881 20.0573 4.97668C20.8132 7.18284 21.8211 8.67071 24.7945 9.59422C24.9457 9.64552 25.0464 9.79944 25.0968 9.95336C25.0968 10.1073 25.0464 10.2612 24.8953 10.3638C21.418 12.2621 19.0494 15.8535 18.8478 19.4963C18.8478 19.7015 18.6966 19.8554 18.4447 19.9067C18.4951 19.9067 18.4951 19.9067 18.4447 19.9067ZM12.2964 10.056C14.4634 10.8769 16.0257 11.9543 16.9832 13.2882C17.7895 14.417 18.2431 15.6996 18.4951 16.9823C19.3014 14.2118 21.2164 11.6978 23.7362 10.1073C21.1156 9.08116 20.0573 7.38806 19.3014 5.28451C18.999 4.36101 18.6966 3.4375 18.4951 2.46269C18.0919 4.05317 17.4872 5.38713 16.6304 6.56716C15.5217 8.15765 14.0099 9.38899 12.2964 10.056Z" fill="#C32D1F"/>
<path d="M25.1472 22.3181C26.7599 22.0103 28.1205 21.0354 29.0277 19.9067C29.9348 18.778 30.3883 17.444 30.6403 16.1101C30.8419 17.1362 31.1443 18.1623 31.497 19.1371C32.0514 20.5737 32.8577 21.6511 35.1255 22.2668C32.5049 23.5494 30.6907 25.9095 30.5899 28.3722C30.3883 27.0382 30.1867 25.653 29.2796 24.5243C28.4229 23.5494 26.9111 22.8312 25.1472 22.3181Z" fill="#C32D1F"/>
<path d="M30.59 28.834C30.3884 28.834 30.2372 28.68 30.1868 28.4748C30.0356 27.2435 29.8341 25.9095 28.9773 24.8321C28.2214 23.9599 26.9111 23.2416 25.0465 22.6772C24.8449 22.6259 24.7441 22.472 24.7441 22.2668C24.7441 22.0616 24.8953 21.9076 25.0465 21.8563C26.4576 21.5485 27.8183 20.7276 28.7254 19.5989C29.4813 18.6241 29.9852 17.444 30.2372 15.9562C30.2876 15.7509 30.4388 15.597 30.6404 15.597C30.842 15.597 30.9932 15.7509 31.0435 15.9049C31.2451 16.8797 31.4971 17.9058 31.9003 18.8806C32.4546 20.2659 33.1601 21.1894 35.2767 21.805C35.4279 21.8563 35.5791 22.0103 35.5791 22.1642C35.5791 22.3181 35.4783 22.472 35.3271 22.5746C32.8074 23.7547 31.1443 26.0121 30.9932 28.3722C30.9932 28.68 30.842 28.834 30.59 28.834C30.6404 28.834 30.59 28.834 30.59 28.834ZM26.508 22.3181C27.919 22.8312 28.9269 23.4981 29.5821 24.319C30.086 24.9347 30.4388 25.7043 30.6404 26.4226C31.2451 24.8321 32.505 23.3955 34.1177 22.3694C32.3538 21.6511 31.6483 20.625 31.0939 19.291C30.8924 18.778 30.7412 18.3162 30.59 17.8032C30.2876 18.7267 29.8845 19.4963 29.3301 20.1632C28.6246 21.1381 27.6167 21.8563 26.508 22.3181Z" fill="#C32D1F"/>
<path d="M47.8253 45.2006C47.7245 45.2006 47.6741 45.098 47.6741 45.0467C48.0772 42.9944 48.2284 40.9422 48.0772 38.8899C48.0772 38.8386 48.1276 38.736 48.178 38.736C48.2788 38.736 48.3292 38.7873 48.3292 38.8386C48.43 40.9422 48.3292 43.0457 47.926 45.098C47.9764 45.1493 47.8757 45.2006 47.8253 45.2006Z" fill="#C32D1F"/>
<path d="M45.7086 45.3545C45.7086 45.3545 45.6582 45.3545 45.7086 45.3545C45.6078 45.3032 45.5574 45.2519 45.5574 45.1493C45.8093 44.431 45.9101 43.7127 45.9101 42.9431C45.9101 42.8918 45.9605 42.7892 46.0613 42.7892C46.1117 42.7892 46.2125 42.8405 46.2125 42.9431C46.2125 43.7127 46.0613 44.4823 45.8597 45.2006C45.8093 45.3032 45.759 45.3545 45.7086 45.3545Z" fill="#C32D1F"/>
</svg>
