<svg width="60" height="69" viewBox="0 0 60 69" fill="none" xmlns="http://www.w3.org/2000/svg">
<path d="M17.4211 29.0888C21.4325 30.8066 24.3552 33.4979 25.9598 38.5942C27.2778 42.7743 32.55 60.0099 33.9827 64.0755C34.7277 66.0797 35.9311 68.3129 38.0514 68.4846C38.3953 68.5419 38.7391 68.4846 38.9684 68.3129C39.2549 68.1411 39.4268 67.7975 39.5414 67.5112C40.1145 65.9079 39.5414 64.19 38.9684 62.644C37.5357 58.6357 32.0916 41.5145 30.6589 37.5062C29.7993 35.1012 28.8824 32.5245 29.4555 30.005C29.9712 27.7718 31.5758 25.8249 31.805 23.5344C26.5901 24.3361 21.4898 25.9394 16.7334 28.2299C16.7334 28.5734 16.848 28.8597 17.4211 29.0888Z" fill="#1E865D"/>
<path d="M38.2808 69C38.2235 69 38.1088 69 38.0515 69C36.1604 68.8282 34.6704 67.2249 33.5816 64.2473C32.4355 61.1552 29.2263 50.6191 27.0487 43.6332C26.361 41.4573 25.8452 39.6822 25.5014 38.7087C24.0687 34.1278 21.4899 31.2647 17.2492 29.4896C16.5616 29.2033 16.275 28.8025 16.3323 28.2299C16.3323 28.0581 16.4469 27.9436 16.5616 27.8863C21.3753 25.5386 26.4756 23.9353 31.7478 23.1336C31.8624 23.1336 32.0343 23.1336 32.1489 23.2481C32.2636 23.3626 32.3209 23.4772 32.2636 23.649C32.0916 24.966 31.5186 26.1685 31.0028 27.3709C30.5444 28.3444 30.0859 29.2033 29.914 30.1768C29.3982 32.639 30.3151 35.273 31.1174 37.3917C31.8624 39.3958 33.5816 44.7784 35.3008 49.9892C36.9627 55.2 38.7392 60.5253 39.4842 62.5295C40.1146 64.3046 40.6876 66.0797 40.0573 67.7402C39.8853 68.2556 39.6561 68.5992 39.3123 68.771C39.0257 68.9427 38.6819 69 38.2808 69ZM17.5931 28.688C22.063 30.5776 24.871 33.6697 26.361 38.4797C26.7048 39.5104 27.2206 41.2855 27.9083 43.4041C30.0286 50.3328 33.2951 60.8689 34.4412 63.961C35.3581 66.595 36.6189 67.9693 38.1088 68.0838C38.3954 68.0838 38.6246 68.0838 38.7392 67.9693C38.9111 67.8548 39.0257 67.683 39.1404 67.3967C39.6561 66.0224 39.1404 64.4191 38.5673 62.8158C37.8223 60.8116 36.1031 55.429 34.3839 50.2183C32.722 45.0075 30.9455 39.6822 30.2005 37.678C29.3982 35.4448 28.3667 32.639 28.9971 29.9477C29.2263 28.8597 29.6848 27.8863 30.1432 26.9129C30.6017 25.9394 31.0028 25.0805 31.232 24.107C26.361 24.9087 21.6618 26.3975 17.2492 28.5162C17.3638 28.5734 17.4212 28.6307 17.5931 28.688Z" fill="#1E865D"/>
<path d="M1.31812 27.371L5.67342 32.3527L41.3181 21.3585L41.9485 14.8307L1.31812 27.371Z" fill="#1E865D"/>
<path d="M5.67337 32.8108C5.55876 32.8108 5.44415 32.7535 5.32953 32.639L0.974232 27.6573C0.859619 27.5427 0.859619 27.371 0.859619 27.2564C0.916926 27.0846 1.03154 26.9701 1.14615 26.9701L41.7192 14.4299C41.8911 14.3726 42.0057 14.4299 42.1204 14.4871C42.235 14.6017 42.2923 14.7162 42.2923 14.888L41.6619 21.4158C41.6619 21.5876 41.49 21.7593 41.3181 21.8166L5.84529 32.7535C5.78799 32.8108 5.73068 32.8108 5.67337 32.8108ZM2.12036 27.6L5.84529 31.8373L40.8596 21.0722L41.3754 15.5178L2.12036 27.6Z" fill="#1E865D"/>
<path d="M5.50151 30.1768C5.4442 30.1768 5.3869 30.1195 5.32959 30.0623C5.32959 30.005 5.32959 29.8905 5.4442 29.8905L39.3124 19.3544C39.3697 19.3544 39.4843 19.3544 39.4843 19.4689C39.4843 19.5262 39.4843 19.6407 39.3697 19.6407L5.50151 30.1768C5.55882 30.1768 5.55882 30.1768 5.50151 30.1768Z" fill="#1E865D"/>
<path d="M59.3122 44.893C59.3122 44.893 45.6159 46.3817 40.0572 42.2017C39.8279 41.9154 39.4268 41.4573 38.9683 40.8847C38.5672 40.5411 38.2234 40.2548 37.8222 39.9685C37.3638 39.7394 36.848 39.5104 36.3322 39.3386C34.9569 38.8232 33.5242 38.5369 32.0915 38.3652C31.9196 38.3652 31.6904 38.3652 31.5185 38.3079C32.0342 39.2813 32.4927 40.083 32.55 40.5983C32.6073 41.3427 32.6646 42.4307 31.9196 42.7743C31.6331 42.8888 30.2577 43.0033 29.9139 43.0033C28.4812 42.9461 25.1001 42.8315 23.6675 42.9461C23.0944 43.0033 20.6875 42.7743 20.2291 43.1179C19.3122 43.8622 18.338 46.8398 22.3494 47.3552C21.4325 47.8133 20.6302 48.844 20.6875 49.7602C20.8022 50.7336 21.7191 51.3635 22.5787 51.8788C21.8337 52.3942 21.4325 52.9096 21.5471 53.7112C21.6617 54.5701 22.7506 55.8871 24.2405 56.0017C22.7506 56.2307 22.2921 58.1776 23.4956 58.8647C26.7047 60.8116 33.5815 61.9569 42.0629 59.4946C44.9855 58.6357 59.5414 59.3228 59.5414 59.3228L59.3122 44.893Z" fill="#EEF1F9"/>
<path d="M32.722 61.3842C28.4813 61.3842 25.2148 60.4681 23.2664 59.2656C22.5787 58.8647 22.2349 58.1203 22.4068 57.2614C22.5214 56.8033 22.6933 56.4025 23.0372 56.1162C21.9484 55.6008 21.2034 54.5129 21.1461 53.7685C21.0314 52.9095 21.3753 52.3369 21.8337 51.9361C21.1461 51.478 20.3438 50.7909 20.2865 49.8174C20.2292 49.0158 20.6303 48.1568 21.2607 47.5842C19.828 47.1834 19.2549 46.3245 19.083 45.6946C18.7392 44.6066 19.3122 43.3469 19.9426 42.7743C20.3438 42.488 21.1461 42.4307 22.8653 42.488C23.2091 42.488 23.4956 42.488 23.6675 42.488C25.1575 42.3734 28.7678 42.488 29.9713 42.5452C30.3151 42.5452 31.5759 42.4307 31.7478 42.3734C32.2635 42.1444 32.1489 40.9992 32.0916 40.6556C32.0343 40.312 31.6905 39.5676 31.232 38.766L31.1174 38.5369C31.0601 38.3651 31.0601 38.1934 31.1174 38.0788C31.232 37.9643 31.3466 37.8498 31.5186 37.8498C31.6905 37.8498 31.9197 37.8498 32.0916 37.9071C33.8108 38.0788 35.1862 38.4224 36.4469 38.8805C36.9627 39.0523 37.4784 39.2813 37.9942 39.5676L38.0515 39.6249C38.51 39.9685 38.9111 40.312 39.2549 40.5983L39.3122 40.6556C39.7707 41.171 40.1145 41.629 40.3438 41.9154C45.6733 45.8664 59.083 44.4921 59.1976 44.4349C59.3122 44.4349 59.4269 44.4349 59.5415 44.5494C59.6561 44.6066 59.7134 44.7784 59.7134 44.8929L59.9426 59.3801C59.9426 59.4946 59.8853 59.6091 59.828 59.7237C59.7134 59.8382 59.5988 59.8382 59.4842 59.8382C59.3122 59.8382 44.9856 59.151 42.1776 60.01C38.6819 60.9834 35.53 61.3842 32.722 61.3842ZM21.891 43.4042C21.2607 43.4042 20.6303 43.4042 20.4584 43.5187C20.1145 43.805 19.6561 44.7212 19.8853 45.4656C20.1145 46.2672 20.9741 46.7826 22.3495 46.8971C22.5214 46.8971 22.6933 47.0689 22.7506 47.2979C22.808 47.4697 22.6933 47.6988 22.5214 47.756C21.7764 48.0996 21.0314 48.9585 21.1461 49.7029C21.2034 50.39 22.0057 50.9627 22.8653 51.478C22.9799 51.5353 23.0945 51.7071 23.0945 51.8788C23.0945 52.0506 23.0372 52.1651 22.9226 52.2797C22.2349 52.7378 22.0057 53.1386 22.063 53.7112C22.1203 54.2838 22.9799 55.4863 24.2979 55.6008C24.5271 55.6008 24.6991 55.8299 24.6991 56.0589C24.6991 56.288 24.5271 56.517 24.2979 56.517C23.6675 56.6315 23.381 57.0896 23.2664 57.4905C23.2091 57.9486 23.3237 58.2921 23.6675 58.5212C26.934 60.4681 33.8681 61.4415 41.891 59.0938C44.5845 58.3494 56.3896 58.8075 59.0257 58.8647L58.7965 45.351C56.2177 45.5801 44.8137 46.3245 39.7134 42.5452L39.6561 42.488C39.4269 42.2017 39.083 41.7436 38.6246 41.2282C38.338 40.9419 37.9942 40.7129 37.5357 40.3693C37.0773 40.1402 36.6188 39.9112 36.1604 39.7394C35.0143 39.3386 33.8108 39.0523 32.3208 38.8232C32.6647 39.5104 32.9512 40.083 33.0085 40.5411C33.0658 41.1137 33.2377 42.6598 32.1489 43.1751C31.7478 43.3469 30.2578 43.4614 29.914 43.4614C28.7105 43.4042 25.1575 43.2896 23.7249 43.4042C23.5529 43.4042 23.2091 43.4042 22.8653 43.4042C22.5787 43.4042 22.2349 43.4042 21.891 43.4042Z" fill="#209466"/>
<path d="M24.8138 47.9851L21.7765 47.756C21.5473 47.756 21.3181 47.527 21.3754 47.2407C21.3754 47.0116 21.6046 46.7826 21.8911 46.8398L24.8711 47.0689C25.1003 47.0689 25.3295 47.2979 25.2722 47.5842C25.2722 47.8133 25.043 47.9851 24.8138 47.9851Z" fill="#209466"/>
<path d="M24.1261 52.5087C23.4957 52.5087 22.6361 52.3942 22.1204 52.1079C21.8912 51.9934 21.7765 51.7071 21.8912 51.478C22.0058 51.249 22.2923 51.1344 22.5215 51.249C22.98 51.478 23.8396 51.5925 24.3553 51.5353C24.5846 51.5353 24.8138 51.7071 24.8138 51.9361C24.8138 52.1651 24.6419 52.3942 24.4126 52.3942C24.298 52.5087 24.1834 52.5087 24.1261 52.5087Z" fill="#209466"/>
<path d="M56.7334 57.5477C56.6761 57.5477 56.5615 57.4905 56.5615 57.3759V48.9012H56.8481H56.6761H56.8481V57.3759C56.9054 57.4905 56.8481 57.5477 56.7334 57.5477Z" fill="#1E865D"/>
<path d="M54.3838 57.2041C54.3265 57.2041 54.2119 57.1469 54.2119 57.0324V54.9709C54.2119 54.9137 54.2692 54.7992 54.3838 54.7992C54.4411 54.7992 54.5558 54.8564 54.5558 54.9709V57.0896C54.5558 57.1469 54.4411 57.2041 54.3838 57.2041Z" fill="#1E865D"/>
<path d="M0.458453 12.8838C0.229226 12.8838 0 12.712 0 12.4257C0 12.1967 0.17192 11.9676 0.458453 11.9676C1.26075 11.9104 1.94842 11.8531 2.6361 11.8531C3.32378 11.7958 4.01146 11.7386 4.81375 11.7386C5.04298 11.7386 5.27221 11.9104 5.27221 12.1967C5.27221 12.4257 5.10029 12.6548 4.81375 12.6548C4.01146 12.5975 3.32378 12.6548 2.6361 12.712C2.00573 12.7693 1.26075 12.8266 0.458453 12.8838Z" fill="#1E865D"/>
<path d="M7.27794 10.5934C7.04872 10.5934 6.81949 10.4216 6.81949 10.1925L6.53296 5.84066C6.53296 5.61161 6.70488 5.38257 6.93411 5.38257C7.16333 5.38257 7.39256 5.55435 7.39256 5.7834L7.67909 10.1353C7.7364 10.3643 7.56448 10.5934 7.27794 10.5934Z" fill="#1E865D"/>
<path d="M12.6647 12.5975H9.28365C9.05442 12.5975 8.8252 12.3685 8.8252 12.1394C8.8252 11.9104 9.05442 11.6813 9.28365 11.6813H12.6647C12.894 11.6813 13.1232 11.9104 13.1232 12.1394C13.1232 12.3685 12.894 12.5975 12.6647 12.5975Z" fill="#1E865D"/>
<path d="M7.27803 19.2971C6.9915 19.2971 6.81958 19.0681 6.81958 18.7818C6.93419 17.4075 6.93419 16.0332 6.81958 14.7162C6.81958 14.4871 6.9915 14.2581 7.22073 14.2008C7.44995 14.2008 7.67918 14.3726 7.73649 14.6017C7.8511 16.0332 7.8511 17.4075 7.73649 18.839C7.73649 19.1253 7.50726 19.2971 7.27803 19.2971Z" fill="#1E865D"/>
<path d="M18.4528 5.95519C18.2236 5.95519 17.9944 5.78341 17.9944 5.4971C17.9944 5.26806 18.1663 5.03901 18.4528 5.03901C18.9686 5.03901 19.3124 4.98175 19.6563 4.92449C20.0001 4.86723 20.4013 4.86723 20.917 4.80997C21.2036 4.80997 21.3755 4.98175 21.3755 5.26806C21.3755 5.4971 21.2036 5.72615 20.917 5.72615C20.4013 5.72615 20.0001 5.78341 19.6563 5.84067C19.427 5.89793 19.0259 5.95519 18.4528 5.95519C18.5101 5.95519 18.4528 5.95519 18.4528 5.95519Z" fill="#1E865D"/>
<path d="M23.0373 3.77925C22.8081 3.77925 22.5788 3.60747 22.5788 3.32116C22.5215 2.80581 22.5215 2.34772 22.4642 1.88963C22.4069 1.43154 22.4069 0.973444 22.3496 0.458091C22.3496 0.229046 22.5215 0 22.7508 0C22.98 0 23.2092 0.171784 23.2092 0.40083C23.2665 0.916183 23.2665 1.37427 23.3238 1.83237C23.4384 2.34772 23.4957 2.80581 23.4957 3.32116C23.4957 3.55021 23.3238 3.77925 23.0373 3.77925Z" fill="#1E865D"/>
<path d="M25.2151 5.7834C25.1005 5.7834 24.9285 5.7834 24.8139 5.7834C24.5847 5.7834 24.3555 5.55435 24.3555 5.32531C24.3555 5.09626 24.5847 4.86722 24.8139 4.86722C25.1578 4.86722 25.4443 4.86722 25.6735 4.86722C25.9027 4.86722 26.132 4.86722 26.5331 4.86722C26.7623 4.86722 26.9916 5.09626 26.9916 5.32531C26.9916 5.55435 26.7623 5.7834 26.5331 5.7834C26.1893 5.7834 25.9601 5.7834 25.6735 5.7834C25.5016 5.7834 25.387 5.7834 25.2151 5.7834Z" fill="#1E865D"/>
<path d="M22.9799 10.6506C22.9226 10.6506 22.9226 10.6506 22.9799 10.6506C22.6934 10.6506 22.5215 10.4216 22.5215 10.1353C22.5788 9.16182 22.5788 8.58921 22.5215 7.5585C22.5215 7.32946 22.6934 7.10041 22.9226 7.04315C23.1519 7.04315 23.3811 7.21494 23.4384 7.44398C23.4957 8.47469 23.4957 9.16182 23.4384 10.1353C23.3811 10.4216 23.2092 10.6506 22.9799 10.6506Z" fill="#1E865D"/>
</svg>
