<svg width="115" height="74" viewBox="0 0 115 74" fill="none" xmlns="http://www.w3.org/2000/svg">
<path d="M95.0417 51.4538L96.5417 52.0596C96.5 52.1029 96.4167 52.1895 96.3333 52.276C95.6667 53.1848 95.0417 54.6129 95.4167 54.9591C95.75 55.3053 96.5417 56.9064 96 57.2526C95.4583 57.5988 94.9167 57.7286 95.0417 58.2479C95.1667 58.7672 95.2917 59.1567 94.7083 59.3731C94.125 59.6327 93.8333 59.8058 93.75 60.7579C93.6667 61.7099 91.8333 63.8304 91.5 63.8304C91.2083 63.8304 89.9583 57.9883 90.625 56.9064C91.2917 55.8246 93.75 52.9251 94.4583 52.0596C94.5833 51.8865 94.7917 51.6702 95.0417 51.4538Z" fill="#EF7E4E"/>
<path d="M87.375 21.5942C88.0417 22.1567 87.25 22.676 86.125 22.676C85.0417 22.676 83.4583 21.5509 83.9167 20.5123C84.0417 20.2526 84.6667 20.2094 84.9583 20.7287C85.25 21.248 86.6667 21.0316 87.375 21.5942Z" fill="#EF7E4E"/>
<path d="M82.5417 19.9497C83.8751 20.7287 83.0834 22.0269 82.0001 22.0269C80.9167 22.0269 79.6667 22.9789 78.2917 22.676C77.3751 22.4597 77.2917 20.9883 77.5834 19.7766C77.7917 18.9977 78.6251 18.6515 79.2917 18.9977C79.9167 19.3871 81.2501 19.1708 82.5417 19.9497Z" fill="#EF7E4E"/>
<path d="M81.7918 25.7053C82.0418 26.0948 82.1668 26.5708 82.0001 27.0035C81.2084 27.1766 80.4168 26.7439 79.7084 26.3544C79.6251 26.3111 79.5417 26.2246 79.5417 26.138C79.5417 26.0082 79.6251 25.9217 79.7084 25.8784C80.0418 25.6187 80.2918 25.2293 80.3751 24.7965C80.4584 24.71 80.6668 24.7532 80.7918 24.8398C81.1668 25.0994 81.5418 25.3591 81.7918 25.7053Z" fill="#EF7E4E"/>
<path d="M54.0832 7.61639C54.9166 7.61639 55.5832 10.4293 54.9582 11.2515C54.3332 12.117 51.5832 12.8094 50.8749 12.7661C50.1666 12.6796 51.5832 9.39066 52.5832 7.87604C52.6249 7.91932 53.2499 7.61639 54.0832 7.61639Z" fill="#EF7E4E"/>
<path d="M50.2916 4.54388C51.6249 4.54388 51.6666 5.75558 51.3333 6.96728C50.9999 8.17897 51.2499 9.39067 50.7916 9.60704C50.2916 9.82342 48.2916 9.26084 47.4166 8.82809C46.5 8.39535 47.0833 5.8854 47.3333 5.19301C47.2916 5.19301 48.9583 4.54388 50.2916 4.54388Z" fill="#EF7E4E"/>
<path d="M48.8334 1.29258e-05C49.1667 0.0865626 50.1667 1.16843 50.0834 2.55323C50.0001 3.89475 49.2501 3.89475 48.2084 4.54387C47.1667 5.193 46.1251 4.3275 46.0001 3.20235C45.8751 2.07721 45.6667 2.07721 47.0001 0.216387C47.0001 0.216387 48.5001 -0.0432619 48.8334 1.29258e-05Z" fill="#EF7E4E"/>
<path d="M27.25 17.0936C27.375 16.7906 29.3334 14.9731 29.3334 16.4877C29.3334 17.9591 28.7917 18.7813 26.6667 19.8199C24.5417 20.8585 22.25 22.5895 21.125 26.0082C19.9584 29.4269 19.75 29.9895 20.125 30.7252C20.375 31.2444 20.9167 32.1099 21.2084 32.586C21.2917 32.7591 21.2084 32.9754 21.0417 32.9754C20.25 33.1485 18.8334 33.1485 18.6667 32.7591C18.4167 32.3263 18.375 31.2877 17.9167 31.2012C17.4584 31.1146 16.5 30.4655 17.3334 29.5135C18.1667 28.5614 20.75 22.2 20.75 21.6807C20.75 21.1614 23.2917 18.5649 24.3334 18.3485C25.3334 18.1754 27.125 17.3965 27.25 17.0936Z" fill="#EF7E4E"/>
<path d="M13.3333 73.3076L13.125 73.2211L12.8333 72.6585L12.6667 72.5287L12.1667 72.6152L11.75 72.745L11.5417 72.5287L10.7083 72.0094L10.125 72.0526L9.20833 71.7497L8.95833 71.8363C8.29167 71.2737 7.70833 70.6678 7.5 70.6246C7.20833 70.538 7 70.062 7.29167 69.4994C7.58333 68.9369 8 68.3743 8.08333 68.2877C8.20833 68.2012 8.75 67.9415 8.20833 67.9415C8.04167 67.9415 7.83333 67.9848 7.625 68.0281C7.70833 67.7684 7.79167 67.379 7.875 67.2924C8.04167 67.1193 8.5 67.1626 8.70833 67.1626C8.95833 67.1626 8.91667 66.9462 8.91667 66.7731C8.91667 66.6 8.58333 66.4269 8.58333 66.4269L8.95833 66.0807L8.54167 65.8643L8.91667 65.7778C8.91667 65.7778 9.04167 65.4316 9.04167 65.345C9.04167 65.2585 8.79167 65.2585 8.66667 65.2585C8.54167 65.2585 8.25 65.0854 8.25 65.0854L7.79167 64.6959C7.79167 64.6959 7.66667 64.7825 7.5 64.869C7.375 64.9988 7.08333 64.2632 7.08333 64.2632C7.08333 64.2632 6.66667 64.5228 6.54167 64.5228C6.41667 64.5228 6.08333 64.1766 6.08333 64.1766L5.83333 64.4363L5.66667 64.0468V63.7006H5.54167V63.2678L4.83333 63.3111L4.79167 62.7486H5.08333L4.70833 62.2293L4.5 61.9263L4.16667 62.0994L3.95833 62.2293L3.91667 62.0994L3.54167 62.0561V62.4024H3.08333V61.8398H2.83333L2.79167 61.0608L3.45833 61.1474L3.83333 60.7146L3.58333 60.4983V60.2386L3.125 60.3684L3.16667 59.8059L2.83333 59.7626L2.66667 59.1135L2.375 58.9404L2.5 58.5942L2.29167 58.3778L2.45833 58.1614L2.5 57.9018L2.25 57.8152L2.08333 57.5123L1.70833 57.7287L1.5 57.8585L1.45833 57.469L1.04167 57.5123L0.583333 57.2526L0.5 56.2573L0.125 56.3871L0.25 55.6947L0 55.4784V55.4351L0.25 54.7427C0.25 54.7427 0 53.8339 0.0416667 53.6176C0.0833333 53.4012 0.583333 52.9252 0.583333 52.9252L0.458333 52.6655C0.875 52.4924 1.04167 52.1029 1.29167 52.1029C1.58333 52.1029 2.08333 52.1029 1.91667 51.9298C1.75 51.7567 1.16667 51.6702 1.04167 51.5404C0.958333 51.4538 0.833333 51.1509 0.208333 51.1942C0.916667 50.2854 2.58333 48.0784 2.83333 47.6024C3.125 46.9965 1.79167 46.0877 1.79167 46.0877L2.16667 45.5684L1.875 45.2222L1.83333 44.3567H1.625L1.5 44.0971L1.70833 43.8374L1.54167 43.7076L1.625 42.8421L1.91667 42.7556C1.91667 42.7556 1.125 40.5918 1.125 40.462C1.125 40.3322 1.58333 39.7263 1.625 39.5965C1.66667 39.3801 1.91667 38.8608 1.625 38.5146C1.33333 38.2117 0.833333 37.9953 0.833333 37.9953L0.958333 36.8702C0.958333 36.8702 0.958333 36.6971 0.958333 36.4807L1.25 36.3509L1.41667 35.8316L1.91667 35.5719V35.0959L2.20833 35.269H2.5V34.9228C3.08333 35.269 3.91667 35.7018 4.5 35.745C5.41667 35.8316 6.08333 35.9614 7.08333 36.9567C8.08333 37.9521 9.75 38.5146 9.79167 39.51C9.83333 40.462 10.0417 40.6351 9.29167 41.3708C8.58333 42.1064 8.16667 42.4094 6.58333 41.6737C5 40.938 4.08333 40.462 3.875 40.3322C3.66667 40.2024 3.45833 40.0293 3.91667 40.7217C4.375 41.414 5.25 41.7602 5.29167 42.2795C5.33333 42.7988 5.41667 44.1836 5.54167 44.6597C5.66667 45.1357 6.45833 45.7848 6.875 45.8281C7.25 45.8714 7.70833 45.8714 7.58333 45.5252C7.45833 45.179 7.08333 44.9193 6.79167 44.4433C6.5 43.9673 6.66667 43.4912 7.33333 43.924C8 44.3567 9.625 44.7462 9.25 44.0538C8.875 43.3614 8.45833 43.1883 8.875 42.8421C9.29167 42.4959 10.3333 40.8948 11 41.2842C11.7083 41.6304 12.0833 41.7602 12.0833 41.1977C12.0833 40.9813 12 40.6784 11.9167 40.3322L13.0417 40.1158C13.0833 40.2024 13.1667 40.2456 13.25 40.3322C13.7917 40.6351 13.5417 40.7217 14.6667 39.2936C15.8333 37.8655 17.4583 36.3509 18.5833 36.9135C19.6667 37.476 19.8333 37.1298 20.6667 37.0433C21.5 36.9567 22.3333 36.9135 23.0833 36.5673C23.875 36.2211 23.4583 35.0526 23 34.793C22.5417 34.5333 23 34.0573 23.9583 34.4901C24.9167 34.9228 26.2083 35.0526 27.0417 36.0047C27.875 36.9567 28.5 37.6924 28.7917 37.6924C29.0833 37.6924 29.9583 37.5193 29.0833 36.2643C28.2083 35.0094 27.5 33.538 27.7917 32.8456C28.0833 32.11 28.8333 30.5521 29.25 29.0807C29.6667 27.6094 29.7917 27.1766 30.5417 27.3497C31.2917 27.5228 32.4583 27.8257 32.0417 29.6866C31.625 31.5474 32.25 31.7638 32.1667 32.6293C32.125 33.538 31.7917 36.7404 32.25 36.7404C32.7083 36.7404 33.5 37.1731 33.25 35.6585C33.0417 34.1439 32.7083 31.0714 33.75 30.4222C34.7917 29.7731 36.25 28.648 36.5833 28.9076C36.9583 29.124 37.875 30.3357 38.3333 30.3357C38.7917 30.3357 39.125 29.9462 38.7083 29.3404C38.2917 28.7345 37.2917 26.9602 37.5 26.3111C37.75 25.7053 41.5417 25.8351 41.875 25.0994C42.2083 24.3638 40.7917 23.6714 41.5833 22.6328C42.4167 21.5942 43.4583 20.0795 44.6667 20.0795C45.875 20.0795 46.2917 19.517 46.875 19.2573C47.4583 18.9977 48.5 18.7813 49.5 18.738C50.5 18.6948 50.5417 18.0024 51.2083 17.7427C51.8333 17.4398 52.125 17.0936 52.2917 16.1415C52.4583 15.1895 53.0417 13.9778 53.75 13.7614C54.5 13.5018 55.875 14.2374 55.5833 14.5836C55.2917 14.9298 54.375 15.6655 54.7917 15.6222C55.2083 15.579 56.625 15.7953 56.7083 16.3579C56.7917 16.8772 59.1667 16.4445 59.625 16.9205C60.0833 17.3965 62 19.6468 60.875 21.0749C59.7083 22.5029 57.5 24.4503 57.7917 24.8398C58.0833 25.2293 59.125 25.1427 60.2083 25.3158C61.2917 25.4889 64.2083 25.4024 64.75 26.2246C65.2917 27.0468 67.9167 28.1287 67.9167 27.0901C67.9167 26.0515 67.625 25.3158 69.75 26.2679C71.875 27.2199 72.0833 27.6526 71.8333 28.3883C71.5417 29.124 71.2917 29.7731 71.7083 30.5088C72.125 31.2445 73.3333 33.6679 73.6667 31.8503C74.0417 30.0328 73.7917 29.6866 74.75 30.4655C75.7083 31.2445 79.0833 31.3743 79.2917 30.5521C79.5417 29.7298 79 27.9988 80.9583 28.3018C82.875 28.6047 85.3333 28.6912 85.9167 29.3836C86.5 30.1193 86.9583 30.5953 87.5833 31.5041C88.1667 32.4129 89.3333 32.4129 90.125 32.1532C90.9167 31.9369 93.4167 32.0234 93.5 32.9755C93.5417 33.9275 93.1667 35.3988 94.6667 35.2257C96.125 35.0094 97.5833 35.0094 98.0417 35.3123C98.5 35.6152 99.125 34.8795 99.4583 34.8363C99.7917 34.793 102.167 33.7977 104 34.4901C105.833 35.2257 108.125 36.9567 109.375 37.8222C110.625 38.6877 111.375 39.0772 111.375 39.3801C111.375 39.7263 111.208 40.8082 111.5 40.8082C111.833 40.8082 112.083 40.2024 112.083 40.2024C112.292 40.2024 113.458 40.3322 113.542 40.4187C113.667 40.5918 114.875 42.0199 114.875 42.0199C114.583 42.4959 114.333 42.5825 114.375 42.7556C114.417 42.8854 113.75 42.9719 113.542 43.2749C113.333 43.6211 112.958 45.3953 112.75 45.3088C112.542 45.2222 110.75 44.5298 110.708 44.1404C110.667 43.7509 110.208 43.0152 109.583 43.145C108.958 43.2749 108.5 42.4094 108.542 42.2363C108.625 42.0199 108.042 41.6304 107.958 42.0199C107.875 42.4094 108.375 43.3181 107.875 43.7942C107.375 44.3135 106.5 44.7462 106.167 44.5298C105.833 44.3135 105.25 44.2269 105.5 44.6164C105.75 45.0059 106.083 45.1357 106.375 45.5252C106.708 45.9146 106.583 46.2608 106.875 46.6503C107.167 46.9965 107.583 47.9918 107.25 48.2515C106.958 48.5111 105.958 47.9053 105.542 48.1217C105.083 48.338 101.083 50.7614 101.042 51.324C101 51.8433 100.583 52.3626 100 51.1942C99.4167 50.0257 98.4583 52.4491 97.9167 52.3193C97.4167 52.1895 96.9583 51.5404 96.3333 52.1462L94.8333 51.5404C95.5 50.848 96.2917 50.069 96.5417 49.3766C96.875 48.4678 97.375 47.5158 96.4167 47.9053C95.5 48.2948 95.9167 48.5544 94.7917 49.9392C93.7083 51.324 93.75 51.7135 93.6667 51.1509C93.5833 50.5883 93.9583 49.2468 93.0417 49.2468C92.125 49.2468 90.3333 51.0643 89.875 51.8C89.4167 52.5357 90.5417 53.1848 89.375 53.2714C88.2083 53.4012 87.875 53.0983 85.1667 52.9684C82.4583 52.8819 81.4583 52.6655 79.0417 55.7813C76.625 58.8971 75.75 59.5895 77.3333 59.8491C78.9167 60.1521 80.25 59.2433 80.3333 60.8445C80.4583 62.4456 79.5833 67.9415 77.25 70.2784C74.9583 72.6152 74.6667 73.0912 74.0417 72.6152C73.75 72.3988 73.25 72.7018 72.75 73.1778L72.6667 72.7018L72.5417 72.6152L73.0833 72.4421L73.1667 71.1871C73.1667 71.1871 72.7917 70.5813 72.9167 70.4515C73.0417 70.3217 73.5417 69.7591 73.875 70.0187C74.2083 70.2784 74.25 70.3649 74.5417 69.7158C74.875 69.11 75.25 68.4608 75.125 68.2012C75 67.9415 75.5 67.4222 75.5 67.4222V66.6866L74.3333 66.9029C74.3333 66.9029 74.1667 67.379 73.7083 67.379C73.25 67.379 72.5417 67.379 72.625 67.076C72.7083 66.7731 72.5417 66.0807 72.5417 66.0807L72.25 65.9509L72.0833 65.345L71.625 65.2152L70.9167 65.0854L70.75 64.3497L70.2083 63.3111C70.2083 63.3111 70.2083 62.1427 70.0833 62.1427C69.9583 62.1427 69.8333 61.1041 68.5833 60.8012C67.3333 60.4983 66.7917 60.8445 66.5833 60.8445C66.375 60.8445 65.7083 61.0176 65.5833 61.4503C65.4583 61.8831 65.9167 61.7532 65.9167 61.7532L66 62.3158C66 62.3158 65.375 62.8351 65.2917 63.138C65.2083 63.4409 64.8333 64.1766 64.9167 64.3064C65 64.4363 64.75 64.9988 64.3333 65.0854C64 65.1719 63.5833 65.0421 63.2083 64.9123C63.0833 64.869 62.9583 64.8257 62.8333 64.7825C62.3333 64.6094 61.9583 64.869 61.7917 64.6526C61.625 64.4795 61.4167 64.1333 60.9167 64.7392C60.4167 65.3018 59.6667 65.6047 58.7917 65.6047C57.9167 65.6047 57.0833 65.3883 56.9167 65.0421C56.7917 64.6959 56.375 64.7392 56.375 64.7392C56.375 64.7392 56.125 64.0035 55.4583 64.1766C54.75 64.3064 53.6667 64.7825 53.2083 64.2199C52.75 63.6573 52.7083 63.0947 52.7083 63.0947L52 62.7486L51.125 62.7053L51.1667 62.4456L50.5417 62.0994C49.6667 63.0515 49.8333 63.7439 50 63.9602C50.125 64.1766 49.9167 64.9556 49.625 64.9123C49.2917 64.869 48.7917 64.4363 48.375 64.6094C47.9583 64.7392 47.4167 64.5661 47.25 64.1333C47.0833 63.7006 46.4167 64.0035 46.4167 64.0035L46.375 63.7871L45.75 63.5708L43.625 65.1719L42.9167 65.345C42.9167 65.345 42.8333 65.4749 42.75 65.5614C42.7083 65.6047 42.625 65.648 42.5833 65.648C42.5417 65.648 42.4167 65.6047 42.3333 65.5614C42.125 65.4749 41.875 65.3018 41.875 65.2585C41.875 65.1287 41.9167 64.9123 41.9167 64.9123C41.9167 64.9123 41.5 65.5181 41.125 65.2585C40.75 64.9988 40.5833 64.6094 40.5833 64.6094L40.0833 64.2632C40.0833 64.2632 40 63.6141 39.5 63.6573C39 63.7006 38.8333 63.8737 38.8333 63.8737L38.3333 63.8304L38.0417 63.7006C38.0417 63.7006 37.7917 62.9649 37.7083 63.1813C37.5833 63.3544 37.1667 63.917 37.1667 63.917C37.1667 63.917 35.9583 61.3205 35.875 61.1907C35.75 61.1041 34.7917 60.1521 34.7917 60.1521C34.7917 60.1521 34.6667 59.8491 34.8333 59.7626C34.9583 59.676 35.4167 59.1567 34.5833 59.6328C33.75 60.1088 33.125 60.4117 33.125 60.4117L32.5833 60.7146C32.5833 60.7146 32.4167 60.3252 32.5833 60.2386C32.75 60.1521 32.9167 59.9357 32.9167 59.9357L31.9167 60.0222L31.5417 59.6328C31.5417 59.6328 30.9167 60.1521 30.875 59.8059C30.8333 59.4597 30.9167 58.8971 30.7917 58.8538C30.6667 58.8105 30.7917 58.3778 30.6667 58.3778C30.5417 58.3778 30.375 58.5509 30 58.5076C29.625 58.4211 29.2917 58.1181 29.2917 58.1181L28.9583 58.5076L28.7917 58.7673L26.8333 59.1135L26.75 59.5462L25.6667 59.7193L24.75 60.1088L24.2917 60.0655L23.8333 59.979L23.5417 60.4983L24 60.7146L23.8333 60.9743L24.5417 61.3205L23.7083 61.2339C23.7083 61.2339 23.5833 61.6667 23.625 61.8398C23.6667 62.0129 23.5833 62.0994 23.2917 62.3158C23 62.5322 23.1667 62.7918 23.1667 62.7918C23.1667 62.7918 23.5833 62.9216 23.8333 63.138C24.0833 63.3977 24.3333 64.0901 23.875 64.0901C23.4167 64.0901 22.9583 63.8304 22.9583 63.8304L22.7083 64.2199C22.7083 64.2199 22 63.7439 21.9167 63.614C21.8333 63.4842 21.4167 63.5275 21.4167 63.5275L21.25 63.8737L20.875 63.5275C20.875 63.5275 20.5 63.6573 20.3333 63.8737C20.1667 64.0901 20.0417 64.2632 20.0417 64.2632L19.25 63.614L19.125 64.1766L18.75 63.4842L18.2917 63.0082H17.75L17.5833 62.7053C17.5833 62.7053 17.125 63.0082 17 63.0515C16.875 63.138 16.875 62.7918 16.875 62.7918L16.5 62.7486L15.5417 63.4842L15.5 63.8304L14.9583 64.0035C14.9583 64.0035 15.2083 64.9123 15.0417 64.869C14.875 64.8257 14.2917 64.2199 14.2917 64.2199L13.7917 64.7825L13.8333 65.6912L13.5417 66.4702L13.9583 66.5567L13.9167 67.2059H14.5833L15.25 68.2445L14.75 68.331L15.5417 68.8503C15 69.2831 13.9583 70.062 13.9583 70.3649C13.9583 70.6679 14.2917 71.1006 14.2917 71.6199C14.3333 72.1392 14.375 72.8316 14.7917 73.2211C14.875 73.2643 14.9167 73.3509 15 73.4374L14.5 73.9567L14.0417 73.8269L13.75 73.4374L13.3333 73.3076Z" fill="#EF7E4E"/>
<path d="M12.7082 37.2164C12.9999 37.3895 14.2499 38.4714 13.6665 38.7743C13.1665 39.0339 12.8332 39.7263 13.0415 40.1158L11.9165 40.3322C11.7915 39.8994 11.6665 39.4234 11.7499 38.9041C11.9165 37.9521 12.4165 37.0433 12.7082 37.2164Z" fill="#EF7E4E"/>
<path d="M6.37509 69.8024C6.41676 69.9322 6.62509 70.2351 6.29176 70.1918C5.95842 70.1486 5.54176 70.4082 5.20842 70.538C4.87509 70.7111 4.62509 70.9708 4.50009 70.4515C4.37509 69.9322 3.79176 69.6293 3.83342 69.5427C3.87509 69.4562 4.70842 69.2398 4.50009 69.1532C4.45842 69.11 4.37509 69.11 4.29176 69.11L4.54176 68.9801L5.25009 69.2831C5.29176 69.4562 5.37509 69.6293 5.54176 69.6293C5.79176 69.7158 6.33342 69.6725 6.37509 69.8024Z" fill="#EF7E4E"/>
</svg>
