<svg width="115" height="156" viewBox="0 0 115 156" fill="none" xmlns="http://www.w3.org/2000/svg">
<g filter="url(#filter0_b_132_386)">
<path d="M77.1042 0.253758C79.6197 -0.720101 82.3858 1.1962 83.2948 4.51046L114.71 119.551C115.619 122.874 114.318 126.345 111.803 127.311L37.8996 155.749C35.3842 156.715 32.6102 154.807 31.709 151.485L0.285784 36.4436C-0.615381 33.1293 0.685424 29.6501 3.19301 28.6841L77.1042 0.253758Z" fill="url(#paint0_linear_132_386)"/>
<path d="M77.4632 1.18709L77.4653 1.18631C78.3702 0.835963 79.3457 0.984909 80.2345 1.59745C81.1342 2.21756 81.9294 3.31286 82.3305 4.77496L113.746 119.815L113.746 119.815C114.146 121.28 114.054 122.763 113.604 123.964C113.152 125.17 112.372 126.021 111.445 126.377L111.444 126.378L37.5411 154.816C36.6348 155.164 35.656 155.014 34.7661 154.401C33.8659 153.781 33.0713 152.687 32.6741 151.223L32.6737 151.221L1.25075 36.1812C1.25068 36.181 1.25062 36.1807 1.25055 36.1805C0.853792 34.7207 0.947052 33.2373 1.39762 32.0339C1.85039 30.8247 2.62976 29.9728 3.55249 29.6173L77.4632 1.18709Z" stroke="url(#paint1_linear_132_386)" stroke-width="2"/>
<path d="M77.4632 1.18709L77.4653 1.18631C78.3702 0.835963 79.3457 0.984909 80.2345 1.59745C81.1342 2.21756 81.9294 3.31286 82.3305 4.77496L113.746 119.815L113.746 119.815C114.146 121.28 114.054 122.763 113.604 123.964C113.152 125.17 112.372 126.021 111.445 126.377L111.444 126.378L37.5411 154.816C36.6348 155.164 35.656 155.014 34.7661 154.401C33.8659 153.781 33.0713 152.687 32.6741 151.223L32.6737 151.221L1.25075 36.1812C1.25068 36.181 1.25062 36.1807 1.25055 36.1805C0.853792 34.7207 0.947052 33.2373 1.39762 32.0339C1.85039 30.8247 2.62976 29.9728 3.55249 29.6173L77.4632 1.18709Z" stroke="url(#paint2_linear_132_386)" stroke-opacity="0.3" stroke-width="2"/>
</g>
<defs>
<filter id="filter0_b_132_386" x="-2" y="-2" width="119" height="160" filterUnits="userSpaceOnUse" color-interpolation-filters="sRGB">
<feFlood flood-opacity="0" result="BackgroundImageFix"/>
<feGaussianBlur in="BackgroundImage" stdDeviation="1"/>
<feComposite in2="SourceAlpha" operator="in" result="effect1_backgroundBlur_132_386"/>
<feBlend mode="normal" in="SourceGraphic" in2="effect1_backgroundBlur_132_386" result="shape"/>
</filter>
<linearGradient id="paint0_linear_132_386" x1="85.0037" y1="35.3127" x2="146.086" y2="152.866" gradientUnits="userSpaceOnUse">
<stop stop-color="#F0F5FA" stop-opacity="0.45"/>
</linearGradient>
<linearGradient id="paint1_linear_132_386" x1="34.7713" y1="10.445" x2="21.0662" y2="76.1551" gradientUnits="userSpaceOnUse">
<stop offset="0.248777" stop-color="white"/>
<stop offset="1" stop-color="white" stop-opacity="0"/>
</linearGradient>
<linearGradient id="paint2_linear_132_386" x1="77.944" y1="115.151" x2="97.7723" y2="62.2625" gradientUnits="userSpaceOnUse">
<stop stop-color="#CBDBF1"/>
<stop offset="1" stop-color="white" stop-opacity="0"/>
</linearGradient>
</defs>
</svg>
