<svg width="20" height="20" viewBox="0 0 20 20" fill="none" xmlns="http://www.w3.org/2000/svg">
<path fill-rule="evenodd" clip-rule="evenodd" d="M10 0C4.48 0 0 4.48 0 10C0 15.52 4.48 20 10 20C15.52 20 20 15.52 20 10C20 4.48 15.52 0 10 0ZM10 18C5.59 18 2 14.41 2 10C2 5.59 5.59 2 10 2C14.41 2 18 5.59 18 10C18 14.41 14.41 18 10 18ZM13.88 6.29C14.2717 5.89829 14.9072 5.89941 15.2975 6.29251C15.6859 6.68365 15.6848 7.31524 15.295 7.705L8.8 14.2C8.35817 14.6418 7.64183 14.6418 7.2 14.2L4.70568 11.7057C4.31594 11.3159 4.31594 10.6841 4.70568 10.2943C5.09489 9.90511 5.72572 9.9045 6.11568 10.293L7.71222 11.8833C7.87125 12.0417 8.1285 12.0415 8.28722 11.8828L13.88 6.29Z" fill="#C32D1F"/>
</svg>
