<svg width="365" height="412" viewBox="0 0 365 412" fill="none" xmlns="http://www.w3.org/2000/svg">
<path d="M82.4561 355.85C60.0642 361.096 42.9862 360.858 19.8276 356.194C14.884 355.187 11.315 350.868 11.315 345.807L1.03113 243.368H98.3181L88.6159 348.113C88.5894 351.822 86.0515 355.028 82.4561 355.85Z" fill="#F7F7F7"/>
<path d="M51.3137 360.38C41.5322 360.38 31.4598 359.188 19.7219 356.829C14.5139 355.77 10.707 351.159 10.707 345.859L0.423093 243.447C0.396656 243.261 0.47596 243.102 0.581707 242.97C0.687453 242.837 0.872523 242.758 1.05758 242.758H98.3446C98.5297 242.758 98.6883 242.837 98.794 242.97C98.8998 243.102 98.9791 243.261 98.9527 243.447L89.2504 348.191C89.2504 352.139 86.5274 355.584 82.6412 356.485C71.4321 359.082 61.5447 360.38 51.3137 360.38ZM1.7185 244.003L11.9231 345.753C11.9231 345.78 11.9231 345.806 11.9231 345.806C11.9231 350.523 15.3069 354.657 19.9334 355.584C43.7528 360.407 60.6459 360.301 82.2975 355.24L82.4297 355.849L82.2975 355.24C85.6286 354.471 87.955 351.53 87.955 348.112L97.6044 244.003H1.7185Z" fill="#CBCCD5"/>
<path d="M77.8562 350.018C58.9804 353.781 43.7265 353.648 24.2162 350.256C20.0392 349.541 17.0254 346.414 17.0254 342.758L9.59668 270.393C9.59668 269.572 10.2576 268.909 11.0771 268.909H88.4838C89.2769 268.909 89.9114 269.545 89.9114 270.34L83.0643 344.401C83.0378 347.103 80.8965 349.409 77.8562 350.018Z" fill="#F7F7F7"/>
<path d="M51.155 353.463C42.7217 353.463 34.0241 352.615 24.1103 350.893C19.6689 350.125 16.4172 346.733 16.4172 342.811L8.98853 270.5C8.98853 270.473 8.98853 270.447 8.98853 270.447C8.98853 269.281 9.94022 268.354 11.077 268.354H88.4836C89.6204 268.354 90.5192 269.281 90.5192 270.394L83.6722 344.534C83.6722 347.448 81.3457 349.992 77.9883 350.681C68.5504 352.509 59.9849 353.463 51.155 353.463ZM10.231 270.394L17.6597 342.705C17.6597 342.732 17.6597 342.758 17.6597 342.758C17.6597 346.071 20.462 348.959 24.3218 349.621C44.4666 353.092 59.4562 353.039 77.7239 349.383L77.8561 349.992L77.7239 349.383C80.4733 348.826 82.4032 346.786 82.4032 344.428L89.2503 270.288C89.2503 269.917 88.9066 269.546 88.4572 269.546H11.0506C10.6011 269.572 10.231 269.943 10.231 270.394Z" fill="#CBCCD5"/>
<path d="M63.4482 240.716C81.5837 241.273 98.3181 242.624 98.3181 244.214C98.3181 246.307 69.37 248.003 46.3172 248.003C23.2644 248.003 0.608154 246.307 0.608154 244.214C0.608154 242.545 15.2541 241.114 32.9667 240.61L63.4482 240.716Z" fill="#F7F7F7"/>
<path d="M46.3171 248.612C35.0815 248.612 23.5815 248.214 14.7781 247.499C-2.62205e-05 246.306 0 244.929 0 244.213C0 243.498 -1.31102e-05 242.438 10.0988 241.351C15.9677 240.715 24.1102 240.238 32.9665 240C33.2838 240 33.601 240.265 33.601 240.609C33.601 240.954 33.3366 241.245 32.993 241.245C14.5137 241.749 3.22526 243.127 1.40113 244.213C3.88617 245.697 23.2907 247.366 46.3171 247.366C69.079 247.366 93.7973 245.803 97.3927 244.213C95.0399 243.206 82.9583 241.934 63.4216 241.325C63.0779 241.325 62.8136 241.033 62.8136 240.689C62.8136 240.344 63.1308 240.08 63.448 240.08C72.7802 240.371 81.3985 240.848 87.7169 241.457C98.8996 242.517 98.8996 243.498 98.8996 244.213C98.8996 244.982 98.8996 246.306 80.9491 247.499C70.7181 248.214 57.7641 248.612 46.3171 248.612Z" fill="#CBCCD5"/>
<path d="M89.8849 269.36C89.8849 271.56 67.5724 273.414 49.4897 273.414C31.407 273.414 9.59668 271.639 9.59668 269.413C9.59668 267.214 31.3805 265.412 49.4897 265.412C67.5988 265.412 89.8849 267.161 89.8849 269.36Z" fill="#F7F7F7"/>
<path d="M49.4896 274.05C40.554 274.05 30.5345 273.6 22.7093 272.884C8.98862 271.586 8.98865 270.182 8.98865 269.44C8.98865 268.698 8.98862 267.267 22.7093 265.995C30.5345 265.253 40.554 264.829 49.4896 264.829C58.5045 264.829 68.6034 265.253 76.5344 265.968C90.5194 267.24 90.5194 268.645 90.5194 269.387C90.5194 270.129 90.5194 271.559 76.5344 272.858C68.5505 273.6 58.4252 274.05 49.4896 274.05ZM10.3105 269.413C12.2932 270.95 30.1909 272.778 49.4896 272.778C68.6298 272.778 87.0826 270.897 89.1447 269.36C87.0826 267.823 68.9735 266.048 49.4896 266.048C30.2173 266.048 12.3197 267.876 10.3105 269.413Z" fill="#CBCCD5"/>
<path d="M24.2688 335.048C23.9251 335.048 23.6343 334.757 23.6343 334.412V284.332C23.6343 283.988 23.9251 283.696 24.2688 283.696C24.6124 283.696 24.9032 283.988 24.9032 284.332V334.412C24.9032 334.783 24.6389 335.048 24.2688 335.048Z" fill="#CBCCD5"/>
<path d="M32.4643 338.175C32.1207 338.175 31.8298 337.884 31.8298 337.539V287.459C31.8298 287.115 32.1207 286.823 32.4643 286.823C32.808 286.823 33.0988 287.115 33.0988 287.459V337.539C33.0988 337.884 32.808 338.175 32.4643 338.175Z" fill="#CBCCD5"/>
<path d="M316.484 90.8472C316.484 90.8472 322.14 68.5253 348.196 60.3011C348.835 60.0978 350.032 62.8515 350.699 62.662C351.366 62.4726 353.165 58.4104 353.853 58.2487C357.161 57.4616 360.755 56.9035 364.626 56.6581C364.612 56.6511 353.505 88.8696 316.484 90.8472Z" fill="#0089C4"/>
<path d="M322.682 86.5949C322.627 86.5672 322.578 86.5255 322.536 86.4699C322.425 86.3101 322.474 86.0733 322.633 85.9616C326.671 83.2586 330.375 80.8418 333.648 78.7671C333.822 78.6623 334.044 78.7035 334.162 78.8842C334.267 79.058 334.225 79.2809 334.051 79.3857C330.799 81.4534 327.095 83.8702 323.058 86.5732C322.94 86.6361 322.794 86.6503 322.682 86.5949Z" fill="#F7F7F7"/>
<path d="M340.396 75.292C340.34 75.2643 340.278 75.2157 340.243 75.1462C340.139 74.9724 340.201 74.7425 340.375 74.6377C340.493 74.5748 351.647 67.9716 355.502 63.1947C355.634 63.0343 355.857 63.006 356.017 63.1378C356.177 63.2697 356.205 63.4924 356.073 63.6528C352.133 68.5273 340.855 75.2074 340.75 75.2773C340.632 75.3402 340.493 75.3405 340.396 75.292Z" fill="#F7F7F7"/>
<path d="M59.9797 77.2764C59.9797 77.2764 49.869 77.1324 38.4852 69.5199C37.8658 69.1112 39.723 66.3917 39.1117 65.9254C38.3104 65.3447 34.1556 66.4895 33.3557 65.8151C26.6627 60.2497 20.2907 51.9693 16.4083 39.7301C16.4083 39.7301 20.5234 40.0887 26.3282 42.0787C26.9899 42.3113 27.8922 45.6596 28.6002 45.9397C29.2686 46.2084 29.7755 43.3841 30.4687 43.6856C40.7878 48.1856 54.0102 57.6262 59.9797 77.2764Z" fill="#F7F7F7"/>
<path d="M60.4145 77.195C60.438 77.3216 60.4038 77.4401 60.3266 77.5292C60.2346 77.6398 60.1145 77.6995 59.9662 77.7083C59.8722 77.7071 49.5931 77.4634 38.2341 69.8837C37.6362 69.4897 37.9779 68.6035 38.3719 67.5954C38.5371 67.1721 38.8069 66.5049 38.7962 66.2451C38.4513 66.1033 37.1627 66.2302 36.3735 66.3205C34.6649 66.5065 33.5905 66.575 33.0798 66.1461C25.187 59.5691 19.4412 50.7237 15.9801 39.8462C15.9351 39.705 15.9626 39.5503 16.0546 39.4397C16.1466 39.3291 16.2848 39.2661 16.4365 39.2753C16.6063 39.2813 20.6885 39.6647 26.4571 41.6614C26.9389 41.8339 27.2757 42.5381 27.8252 43.7826C28.056 44.3195 28.4378 45.165 28.6794 45.4568C28.8156 45.2819 28.9875 44.8947 29.1069 44.6295C29.454 43.8732 29.901 42.9487 30.6372 43.2796C40.8703 47.7208 54.345 57.2081 60.4011 77.1227C60.4078 77.1589 60.4112 77.1769 60.4145 77.195ZM38.7825 69.2023C48.3195 75.5491 57.047 76.6229 59.3683 76.8094C53.3444 57.6742 40.3206 48.496 30.368 44.1524C30.2284 44.3092 30.0123 44.7607 29.878 45.0474C29.531 45.8037 29.1282 46.6639 28.4203 46.3838C27.917 46.1966 27.5667 45.4201 27.0172 44.1756C26.7616 43.6059 26.3415 42.6553 26.1449 42.5048C21.8219 41.0253 18.3966 40.4452 17.0115 40.2533C20.4251 50.6721 26.0131 59.1727 33.6167 65.5042C33.8845 65.735 35.3723 65.5712 36.2555 65.4822C37.8373 65.3196 38.8325 65.2285 39.3331 65.6031C39.9196 66.0366 39.5746 66.9048 39.1658 67.9343C39.0302 68.3148 38.7751 68.9606 38.7825 69.2023Z" fill="#CBCCD5"/>
<g clip-path="url(#clip0_60906_345)">
<path d="M337.696 407.518L248.971 408.046L237.513 394.179L317.423 393.704L337.696 407.518Z" fill="#F8F8F8"/>
<path d="M248.69 408.616L339.406 408.077L317.42 393.135L236.088 393.619L248.69 408.616ZM335.702 406.961L249.252 407.475L238.654 394.741L317.142 394.274L335.702 406.961Z" fill="#9A9A9A"/>
<path d="M186.374 68.0092C186.374 68.0092 191.796 71.1051 195.468 66.8175C199.139 62.5299 202.809 57.9579 200.505 53.1371C198.202 48.3163 197.311 42.0651 197.856 38.0805C198.401 34.0959 193.476 18.7684 189.481 16.5171C185.486 14.2658 170.008 41.6588 170.008 41.6588L186.374 68.0092Z" fill="white"/>
<path d="M190.65 69.6903C192.357 69.6802 194.344 69.0996 196.038 67.0988L196.319 66.5284C199.991 62.2408 203.66 57.6688 201.071 52.5653C198.765 47.4601 198.161 41.4916 198.425 38.0774C198.968 33.8084 194.041 18.1966 189.476 15.6643C185.197 13.4146 172.809 34.5328 168.867 41.0971L168.584 41.3831L185.523 68.2989C187.234 69.1419 188.944 69.7005 190.65 69.6903ZM188.915 17.0895L189.2 17.0878C192.909 19.0565 197.831 33.8152 197.286 37.7998C196.739 41.5 197.629 47.7512 199.937 53.1408C201.954 57.6789 198.848 61.3944 195.177 65.682L194.896 66.2525C192.072 69.6819 187.795 67.7166 186.94 67.4373L170.577 41.6557C177.613 29.3853 186.356 17.1047 188.915 17.0895Z" fill="#9A9A9A"/>
<path d="M195.473 67.6714L196.328 67.9507C196.612 67.949 214.551 71.8237 222.901 89.1215C231.252 106.419 229.735 138.279 229.736 138.564L229.74 139.132L228.929 146.247C228.929 146.247 216.227 210.025 216.23 210.593C216.232 210.878 203.43 210.101 203.43 210.101C203.43 210.101 205.81 179.942 205.808 179.657C205.806 179.373 205.031 144.683 205.031 144.683L200.627 121.389C197.766 118.563 196.045 116.013 196.038 114.876C196.013 110.61 195.766 69.0916 195.764 68.8072L195.473 67.6714Z" fill="#F8F8F8"/>
<path d="M214.812 211.17C216.518 211.16 216.801 210.874 216.799 210.59C216.797 210.305 228.946 149.091 229.498 146.243L230.309 139.129L230.305 138.56L230.304 138.276C230.542 130.596 230.668 103.863 223.469 88.8336C215.115 70.967 196.607 67.0958 196.323 67.0974L194.615 66.8232L194.63 69.3826C194.704 81.8951 194.879 111.186 194.899 114.598C194.904 115.451 195.483 117.154 199.49 121.396L204.178 144.688C204.532 156.345 204.952 179.094 204.955 179.662C204.955 179.662 203.103 202.993 202.577 210.106L202.58 210.674L203.149 210.671C209.691 210.917 213.105 211.181 214.812 211.17ZM215.658 210.028C214.236 210.036 209.116 209.782 203.993 209.244C204.784 198.717 206.094 179.94 206.091 179.371C206.091 179.371 206.089 179.087 205.312 144.112L200.906 120.534C196.901 116.577 196.607 114.872 196.603 114.304C196.583 110.891 196.409 81.6005 196.334 69.0881L196.328 67.9506L196.612 67.9489C196.896 67.9472 214.551 71.8235 222.615 88.8386C229.814 103.868 229.401 130.034 229.163 137.714C229.164 137.998 229.166 138.283 229.166 138.283L229.169 138.851L228.359 145.966C228.079 146.821 216.481 204.904 215.658 210.028Z" fill="#9A9A9A"/>
<path d="M142.715 377.679C142.715 377.679 139.057 384.242 139.648 387.936C139.954 391.631 139.68 393.339 139.68 393.339L147.661 396.419L149.633 393.279L150.799 398.107C150.799 398.107 166.221 409.106 172.771 410.489C179.318 411.588 190.388 408.109 190.378 406.403C190.368 404.697 188.914 399.302 184.628 395.915C180.344 392.812 167.74 377.531 167.74 377.531L142.715 377.679Z" fill="#D6D6D6"/>
<path d="M175.621 411.61C181.309 411.576 188.12 409.26 190.102 407.827C190.669 407.539 190.95 406.968 190.949 406.684C190.938 404.978 189.481 399.014 184.911 395.629C180.911 392.525 168.309 377.527 168.307 377.243L168.021 376.96L142.143 377.114L141.86 377.4C141.577 377.686 138.204 384.247 138.512 388.227C138.817 391.637 138.542 393.345 138.542 393.345L138.546 393.914L147.666 397.272L149.076 395.273L149.95 398.681L150.236 398.963C150.808 399.529 165.944 410.245 172.491 411.344C173.344 411.339 174.484 411.616 175.621 411.61ZM167.176 378.387C168.894 380.367 180.065 393.667 183.78 396.773C187.78 399.878 189.232 404.988 189.242 406.694C188.68 407.835 178.748 411.307 172.485 410.206C166.506 409.104 152.798 399.517 151.084 398.105L149.625 391.857L147.089 395.854L140.249 393.335C140.244 392.482 140.518 390.774 140.218 388.216C139.917 385.374 142.444 379.956 143.004 378.531L167.176 378.387Z" fill="#9A9A9A"/>
<path d="M168.062 383.786L161.246 385.533C160.679 385.82 159.823 385.257 159.535 384.69C159.247 384.122 159.811 383.266 160.38 383.263L167.195 381.516C167.762 381.228 168.618 381.792 168.906 382.359C169.194 382.926 168.915 383.781 168.062 383.786Z" fill="#F9F9F9"/>
<path d="M160.967 386.387C161.251 386.386 161.251 386.386 161.536 386.384L168.351 384.637C168.92 384.633 169.485 384.061 169.483 383.777C169.764 383.206 169.763 382.922 169.759 382.353C169.468 381.217 168.327 380.655 167.191 380.947L160.376 382.694C159.807 382.697 159.242 383.269 159.244 383.553C158.963 384.124 158.964 384.408 158.968 384.977C159.257 385.829 160.114 386.392 160.967 386.387ZM167.767 382.081C168.051 382.079 168.337 382.362 168.337 382.362C168.339 382.646 168.339 382.646 168.339 382.646L168.056 382.932L161.241 384.679C160.957 384.681 160.672 384.683 160.386 384.4C160.385 384.115 160.385 384.115 160.385 384.115L160.667 383.829L167.767 382.081Z" fill="#9A9A9A"/>
<path d="M171.215 388.033L164.4 389.779C163.833 390.067 162.976 389.504 162.688 388.936C162.401 388.369 162.964 387.513 163.533 387.509L170.348 385.763C170.915 385.475 171.772 386.038 172.06 386.606C172.347 387.173 171.782 387.745 171.215 388.033Z" fill="#F9F9F9"/>
<path d="M164.119 390.35C164.403 390.348 164.403 390.348 164.687 390.347L171.503 388.6C172.071 388.596 172.637 388.024 172.635 387.74C172.916 387.169 172.914 386.885 172.911 386.316C172.62 385.18 171.479 384.618 170.343 384.909L163.528 386.656C162.959 386.66 162.394 387.232 162.395 387.516C162.114 388.087 162.116 388.371 162.12 388.94C162.409 389.791 163.266 390.355 164.119 390.35ZM170.92 386.328C171.205 386.326 171.491 386.609 171.491 386.609C171.492 386.893 171.492 386.893 171.492 386.893L171.21 387.179L164.395 388.926C164.11 388.928 163.826 388.93 163.54 388.647C163.538 388.363 163.538 388.363 163.538 388.363L163.821 388.077L170.92 386.328C170.636 386.33 170.636 386.33 170.92 386.328Z" fill="#9A9A9A"/>
<path d="M185.029 367.76C185.029 367.76 181.654 374.036 181.959 377.447C182.263 380.858 181.989 382.566 181.989 382.566L189.4 385.365L191.089 382.511L192.254 387.055C192.254 387.055 206.819 397.49 213.082 398.59C219.061 399.692 229.278 396.219 229.554 394.796C229.544 393.089 228.376 387.977 224.378 385.157C220.378 382.053 208.35 367.905 208.35 367.905L185.031 368.044L185.029 367.76Z" fill="#D6D6D6"/>
<path d="M215.931 399.426C221.334 399.394 227.579 397.367 229.277 395.934C229.844 395.647 230.125 395.076 230.123 394.792C230.113 393.086 228.943 387.689 224.659 384.587C220.945 381.765 208.633 367.619 208.631 367.335L208.345 367.052L184.457 367.194L184.175 367.48C184.176 367.764 180.801 374.041 181.106 377.452C181.409 380.578 181.134 382.286 181.134 382.286L181.138 382.855L189.688 385.932L190.813 383.935L191.401 387.06L191.687 387.342C192.259 387.908 206.539 398.06 212.802 399.161C213.941 399.438 214.794 399.433 215.931 399.426ZM207.784 368.477C209.503 370.458 220.099 382.907 223.813 385.729C227.526 388.551 228.693 393.379 228.701 394.8C228.139 395.941 219.058 399.123 213.079 398.022C207.669 396.916 194.534 387.894 192.821 386.767L191.363 380.803L189.11 384.514L182.839 381.992C182.834 381.138 183.11 379.715 182.812 377.442C182.512 374.884 184.759 370.036 185.603 368.609L207.784 368.477Z" fill="#9A9A9A"/>
<path d="M208.942 371.883L202.696 373.627C202.129 373.915 201.272 373.351 201.269 372.782C200.981 372.215 201.546 371.643 202.113 371.355L208.36 369.612C208.927 369.324 209.783 369.888 209.787 370.456C210.075 371.023 209.794 371.594 208.942 371.883Z" fill="#F9F9F9"/>
<path d="M202.415 374.197C202.699 374.195 202.699 374.195 202.984 374.194L209.23 372.45C209.799 372.447 210.08 371.876 210.362 371.59C210.643 371.02 210.642 370.735 210.638 370.167C210.349 369.315 209.208 368.753 208.355 368.758L202.108 370.502C201.54 370.505 201.259 371.076 200.976 371.362C200.695 371.932 200.697 372.216 200.7 372.785C200.989 373.637 201.562 374.202 202.415 374.197ZM208.648 370.178C208.932 370.177 209.216 370.175 209.218 370.459L209.22 370.744L208.937 371.03L202.691 372.773C202.406 372.775 202.122 372.777 202.12 372.492L202.119 372.208L202.401 371.922L208.648 370.178C208.649 370.463 208.648 370.178 208.648 370.178Z" fill="#9A9A9A"/>
<path d="M211.808 375.563L205.561 377.306C204.994 377.594 204.138 377.031 204.134 376.462C203.847 375.895 204.412 375.322 204.979 375.035L211.226 373.291C211.793 373.003 212.649 373.567 212.653 374.136C212.94 374.703 212.377 375.559 211.808 375.563Z" fill="#F9F9F9"/>
<path d="M205.281 377.877C205.565 377.875 205.565 377.875 205.849 377.873L212.096 376.13C212.664 376.126 212.945 375.556 213.228 375.27C213.509 374.699 213.507 374.415 213.504 373.846C213.215 372.995 212.074 372.433 211.221 372.438L204.974 374.181C204.405 374.185 204.124 374.755 203.842 375.041C203.561 375.612 203.562 375.896 203.566 376.465C203.572 377.603 204.427 377.882 205.281 377.877ZM211.515 374.143C211.799 374.141 212.084 374.139 212.086 374.423L212.087 374.708L211.805 374.994L205.558 376.738C205.274 376.739 204.989 376.741 204.988 376.457L204.986 376.172L205.269 375.886L211.515 374.143Z" fill="#9A9A9A"/>
<path d="M163.216 238.494L146.966 231.765C146.966 231.765 130.635 211.387 131.713 201.427C132.793 191.752 135.122 153.061 131.278 128.343C127.434 103.624 129.33 87.6875 129.33 87.6875C129.33 87.6875 150.005 73.3453 154.56 74.1713C159.115 74.9974 179.834 68.0489 179.834 68.0489L198.896 69.3574C198.896 69.3574 203.457 71.321 208.334 78.4016C213.211 85.4822 218.758 109.622 218.758 109.622L212.405 141.226L212.576 169.948C212.576 169.948 208.185 196.706 209.669 207.22C211.154 217.733 211.479 224.557 209.783 226.273C208.086 227.989 199.007 231.456 195.841 225.218C192.676 218.981 193.375 193.098 193.375 193.098C193.375 193.098 189.616 230.374 181.672 233.55C174.012 236.724 163.216 238.494 163.216 238.494Z" fill="#00B3CB"/>
<path d="M163.221 239.347C163.505 239.345 174.301 237.575 181.959 234.117C187.349 231.809 190.663 215.295 192.586 203.909C192.634 211.871 193.262 221.821 195.274 225.506C196.424 227.49 198.138 228.901 200.699 229.171C204.684 229.716 209.222 227.698 210.353 226.554C212.049 224.837 212.013 218.865 210.52 206.93C209.038 196.701 213.43 170.227 213.429 169.943L213.258 141.221L219.611 109.617L219.609 109.332C219.318 108.196 213.774 84.6255 209.184 77.8276C204.307 70.747 199.745 68.7834 199.459 68.5007L199.175 68.5024L180.113 67.1939C173.017 69.5112 158.54 73.8631 155.124 73.3146C150.284 72.4903 131.592 85.3988 129.325 86.8342L129.042 87.1203L129.044 87.4046C129.046 87.689 127.15 103.626 130.994 128.344C135.126 153.63 132.231 192.892 131.429 201.429C130.35 211.389 146.111 231.486 146.969 232.334L147.255 232.617L163.221 239.347ZM192.806 193.101C191.73 203.345 187.625 230.386 181.668 232.981C174.576 235.867 164.917 237.631 163.497 237.923L147.531 231.193C146.099 229.495 131.483 210.529 132.568 201.706C133.37 193.17 136.263 153.623 132.131 128.338C128.585 105.892 129.916 90.5277 130.187 88.251C135.85 84.2359 150.015 75.0513 154.281 75.026C154.565 75.0243 154.565 75.0243 154.565 75.0243C159.12 75.8503 178.136 69.4807 180.123 68.9002L198.901 70.2104C199.471 70.4914 203.75 72.741 207.769 78.9735C212.073 85.4888 217.61 107.922 218.191 109.909L211.836 141.23L212.007 169.951C211.728 170.806 207.616 196.71 209.1 207.223C210.586 218.021 210.624 224.277 209.495 225.706C208.647 226.564 204.677 228.578 200.975 227.747C198.983 227.475 197.554 226.345 196.691 224.644C193.527 218.691 194.513 193.091 194.511 192.806L192.806 193.101Z" fill="#9A9A9A"/>
<path d="M182.083 63.7695C182.083 63.7695 181.55 69.7448 183.588 77.6954C185.91 85.6444 185.922 87.635 185.922 87.635L186.791 90.1893C186.814 94.1705 185.123 96.74 181.702 95.3385L168.589 90.0132C167.448 89.4512 166.592 88.8875 166.016 87.7534L155.423 75.8723C160.217 69.0185 161.233 48.5368 161.233 48.5368L183.192 58.9284L182.083 63.7695Z" fill="#F8F8F8"/>
<path d="M183.415 96.466C184.269 96.4609 184.836 96.1732 185.403 95.8854C186.819 95.0238 187.661 93.0281 187.644 90.1844L187.642 89.9L186.774 87.3457C186.77 86.777 186.473 84.5037 184.44 77.4061C182.403 69.7399 182.938 64.049 182.937 63.7646L184.04 58.0704L160.655 47.1185L160.662 48.256C160.664 48.5404 159.647 68.7377 154.851 75.3071L154.57 75.8775L165.451 88.3257C166.026 89.4598 167.169 90.3062 168.31 90.8682L181.137 95.9108C181.992 96.1901 182.847 96.4694 183.415 96.466ZM185.938 90.1945C185.951 92.4695 185.391 93.8948 184.543 94.753C183.977 95.3251 182.838 95.0475 181.983 94.7682L168.87 89.4429C168.015 89.1636 167.157 88.3156 166.583 87.4658L156.276 75.8674C160.503 69.3014 161.549 53.9384 161.808 49.6711L182.056 59.2197L181.23 63.7748C181.232 64.0592 180.697 69.75 182.737 77.985C184.773 85.6513 185.069 87.6402 185.069 87.6402L185.071 87.9246L185.938 90.1945Z" fill="#9A9A9A"/>
<path d="M174.129 65.2387C174.129 65.2387 182.398 68.8865 186.073 65.1677C189.748 61.4488 194.239 51.4686 193.318 40.0987C192.397 28.7288 186.952 21.6516 186.952 21.6516L155.154 30.6567L159.538 50.5375L159.85 55.0858L174.129 65.2387Z" fill="#F8F8F8"/>
<path d="M181.254 67.7555C183.245 67.7436 184.948 67.1647 186.361 65.7344C189.753 62.3016 194.811 52.0337 193.603 40.0967C192.682 28.7268 187.236 21.6496 186.95 21.3669L186.947 20.7982L154.013 30.0944L158.687 50.8267L159 55.6593L173.852 66.3776C174.135 66.0915 177.842 67.7758 181.254 67.7555ZM186.388 22.5078C187.536 24.2073 191.556 30.7242 192.465 40.1035C193.386 51.4734 188.609 61.1709 185.501 64.602C182.392 67.7487 175.265 64.9473 174.41 64.668L160.415 54.5134L160.105 50.2494L155.725 30.9374L186.388 22.5078Z" fill="#9A9A9A"/>
<path d="M188.922 18.2273C188.922 18.2273 193.516 25.5939 187.553 27.0513C181.305 28.5104 176.167 25.4128 174.18 25.9934C172.193 26.5739 173.635 29.978 169.659 30.8548C165.683 31.7316 157.993 29.7866 156.86 30.6465C155.728 31.5064 159.476 40.0157 161.197 42.5649C162.634 45.1158 163.504 47.9545 162.098 50.5223C160.691 53.0901 162.414 55.9237 162.137 57.0629C162.143 58.2004 164.486 69.5619 157.104 71.5965C149.722 73.6311 139.769 73.6903 141.419 64.2958C143.07 54.9013 141.035 47.5194 138.457 44.4065C135.879 41.2936 130.683 28.2428 138.882 20.2313C147.082 12.2197 150.132 -0.880123 169.485 1.56421C188.837 4.00855 191.158 11.6731 188.922 18.2273Z" fill="white"/>
<path d="M149.724 73.9151C152.568 73.8982 155.692 73.3109 157.111 72.7337C163.926 70.9868 163.019 61.8919 162.716 58.7655C162.712 58.1967 162.711 57.9124 162.709 57.628C162.705 57.0592 162.702 56.4905 162.414 55.9234C162.121 54.5032 161.543 52.8004 162.387 51.3734C163.794 48.8056 163.491 45.6792 161.482 42.5629C159.472 39.4466 156.588 32.6386 157.15 31.4977C157.433 31.2116 160.278 31.4791 161.986 31.7533C164.547 32.0224 167.677 32.2882 169.666 31.992C172.506 31.4063 173.065 29.6967 173.341 28.2731C173.62 27.4183 173.618 27.1339 174.186 26.8462C174.753 26.5584 175.892 26.836 177.317 27.3963C179.88 27.9499 183.582 28.781 187.558 27.9042C189.263 27.6097 190.393 26.4654 190.955 25.3245C192.078 22.7584 190.067 19.3577 189.491 18.2236C190.326 15.0904 190.309 12.2467 188.587 9.69745C186.002 5.44706 179.445 2.64222 168.915 1.28294C153.831 -0.618019 148.47 6.52348 143.109 13.665C141.701 15.9484 140.008 18.2336 138.029 20.236C129.264 28.8197 135.031 42.1515 137.609 45.2644C139.901 48.0946 142.219 55.1904 140.568 64.5849C140.018 67.7164 140.6 69.988 142.317 71.6841C144.033 73.3802 146.88 73.9321 149.724 73.9151ZM158.279 30.069C157.426 30.0741 156.573 30.0792 156.292 30.6496C154.027 32.3694 160.349 43.4228 160.349 43.4228C162.071 45.972 162.372 48.8141 161.246 50.8115C160.121 52.8088 160.703 55.0805 160.996 56.5006C160.999 57.0694 161.287 57.6364 161.287 57.6364C161.289 57.9208 161.29 58.2052 161.295 59.0583C161.598 62.1847 162.499 70.1421 156.82 71.5979C150.574 73.3413 145.452 72.803 143.165 70.8259C141.736 69.6969 141.44 67.708 141.707 64.8625C143.354 54.8993 141.035 47.5191 138.457 44.4062C136.165 41.576 130.972 29.0939 138.889 21.3685C140.868 19.366 142.561 17.0809 144.253 14.7957C149.614 7.65421 154.41 1.08484 168.64 2.99088C178.602 4.35354 184.873 6.87569 187.456 10.8417C189.173 12.5378 189.188 15.0972 188.354 18.2304L188.355 18.5147L188.641 18.7974C188.641 18.7974 190.938 22.4808 190.099 24.7608C189.819 25.6156 188.97 26.1895 187.55 26.4823C183.573 27.3591 180.156 26.5263 177.877 25.9711C176.169 25.6969 175.029 25.1349 173.893 25.426C172.757 25.7172 172.479 26.8563 172.2 27.7112C171.922 28.8503 171.645 29.9895 169.656 30.2858C167.667 30.582 164.821 30.3145 162.26 30.0454C160.556 30.3399 159.417 30.0623 158.279 30.069Z" fill="#9A9A9A"/>
<path d="M181.596 77.423L168.833 83.1866L161.72 82.6602L185.304 127.168L193.792 119.724L194.926 119.148L188.245 95.5841L183.891 80.822L181.596 77.423Z" fill="#00B3CB"/>
<path d="M185.027 128.307L194.364 120.289L195.781 119.427L188.812 95.2961L184.458 80.534L181.875 76.568L168.829 82.6177L160.579 82.098L185.027 128.307ZM194.071 118.869L193.221 119.443L185.299 126.315L162.58 83.7924L168.838 84.0396L181.032 78.2793L183.04 81.1112L187.392 95.589L194.071 118.869Z" fill="#9A9A9A"/>
<path d="M155.422 75.5875C155.422 75.5875 165.102 77.5206 169.088 78.3501C173.359 79.1778 177.621 78.5837 177.621 78.5837L176.249 86.839C175.978 89.1157 173.713 90.8355 171.436 90.5646L166.035 90.8812L161.434 82.377L155.422 75.5875Z" fill="#F9F9F9"/>
<path d="M165.757 92.0204L171.727 91.7005C174.288 91.9696 176.552 89.9654 177.105 87.4027L178.471 78.0099L177.618 78.0149C177.618 78.0149 173.356 78.6091 169.37 77.7796L153.424 74.4619L161.155 83.2318L165.757 92.0204ZM171.717 89.9942L166.6 90.309L162.287 82.3719L157.419 76.7132L169.094 79.2032C172.225 79.7533 175.353 79.7347 176.775 79.7263L175.682 87.1268C175.409 89.1191 173.71 90.2667 171.717 89.9942Z" fill="#9A9A9A"/>
<path d="M185.922 87.6348L177.623 78.8683L182.412 71.1614L185.922 87.6348Z" fill="#F9F9F9"/>
<path d="M187.073 89.9034L182.684 69.1694L176.77 78.8737L187.073 89.9034ZM181.853 72.8714L184.485 85.0843L178.19 78.5809L181.853 72.8714Z" fill="#9A9A9A"/>
<path d="M135.782 263.967C135.188 259.704 134.592 255.158 134 251.18C131.051 233.566 130.658 215.367 131.975 197.728L132.498 190.046C132.498 190.046 135.96 198.273 138.56 205.082C140.876 211.894 149.733 218.951 158.466 204.964C167.199 190.977 164.951 147.764 162.864 131.567C160.181 110.823 145.199 78.2075 145.199 78.2075L152.85 73.6118L153.717 75.8818C153.717 75.8818 155.447 79.8528 162.082 95.7389C169 111.339 172.277 136.345 172.277 136.345L207.487 127.32C207.487 127.32 207.125 114.24 205.064 102.308C203.002 90.3766 189.787 67.9888 189.787 67.9888L196.612 67.9482C196.612 67.9482 203.774 76.7215 210.115 90.903C216.457 105.369 217.808 141.193 217.808 141.193C217.808 141.193 217.344 206.604 217.405 216.842C217.437 222.245 217.471 227.933 217.499 232.767C217.521 236.464 217.548 241.014 217.579 246.133C217.591 248.123 217.318 250.115 217.332 252.39C215.544 286.527 212.8 303.322 212.8 303.322L208.641 369.04C208.641 369.04 208.365 370.463 198.417 371.376C188.469 372.288 181.045 367.213 181.045 367.213C181.045 367.213 179.657 325.133 179.247 304.091C178.892 292.149 179.334 270.817 179.522 254.606C176.812 277.089 174.123 303.268 173.57 305.831C173.018 308.678 171.718 376.938 171.718 376.938C171.718 376.938 162.369 382.965 154.12 382.73C145.872 382.495 139.304 377.984 139.304 377.984L138.045 309.739C138.045 309.739 138.94 316.843 138.021 305.758C137.705 300.356 136.74 281.593 135.782 263.967Z" fill="#FAFAFA"/>
<path d="M154.977 383.294C163.224 383.245 172.006 377.505 172.29 377.503L172.573 377.217L172.571 376.933C172.999 353.326 174.152 308.102 174.423 305.826C174.699 304.402 175.505 296.435 176.859 285.051C177.399 280.213 177.936 274.807 178.472 269.4C178.264 282.199 178.059 295.566 178.396 304.38C178.804 325.138 180.192 367.218 180.193 367.503L180.195 367.787L180.481 368.07C180.767 368.353 187.905 373.145 198.138 372.231C205.244 371.62 208.936 370.744 209.211 369.321L213.369 303.319C213.369 303.319 216.111 286.24 217.901 252.387C217.887 250.112 218.16 248.12 218.148 246.129C218.403 241.293 218.376 236.743 218.068 232.764C218.039 227.929 218.006 222.242 217.973 216.839C217.913 206.601 218.38 141.759 218.377 141.19C218.368 139.768 217.024 105.081 210.682 90.6153C204.341 76.4338 197.177 67.3761 197.177 67.3761L196.891 67.0934L188.644 67.1425L189.504 68.2749C189.506 68.5593 202.719 90.6627 204.495 102.312C206.262 112.539 206.898 123.911 206.914 126.47L173.124 135.203C172.53 130.941 168.988 109.348 162.932 95.1651C156.298 79.5635 154.568 75.5924 154.568 75.5924L153.414 72.7554L144.346 78.2126L144.634 78.7797C144.92 79.0624 159.616 111.395 162.297 131.855C164.674 148.903 166.63 190.981 157.896 204.683C154.515 210.107 150.834 212.688 147.135 212.426C143.435 211.879 140.287 208.485 139.129 205.079C136.815 198.552 133.069 190.327 133.067 190.043L131.914 187.49L131.124 198.017C129.809 215.941 130.486 234.138 133.15 251.754C133.746 256.3 134.34 260.563 134.932 264.541C135.88 280.46 136.853 300.646 137.172 306.332C137.182 308.038 137.475 309.458 137.48 310.311L137.195 310.313L138.456 378.842L138.742 379.125C139.028 379.407 145.879 383.632 154.127 383.868C154.408 383.297 154.693 383.296 154.977 383.294ZM171.147 376.657C169.448 377.805 161.513 382.402 154.401 382.16C147.575 381.916 141.583 378.539 140.156 377.694L138.917 312.862C139.484 312.574 139.194 311.723 138.876 306.037C138.565 301.489 137.625 286.991 136.637 264.246C136.044 260.268 135.449 255.721 134.854 251.459C132.19 233.843 131.515 215.931 132.83 198.007L133.088 193.455C134.242 196.292 136.263 201.399 137.995 205.655C139.438 209.343 142.876 213.588 147.145 214.132C149.991 214.399 154.534 213.235 159.324 205.812C168.057 191.825 166.097 149.179 164.005 132.129C161.615 112.805 148.644 83.5904 146.626 79.0522L152.571 74.4667L153.148 75.8852C153.148 75.8852 154.88 80.1407 161.514 95.7424C168.147 111.344 171.707 136.064 171.707 136.064L171.712 136.917L208.058 127.601L208.054 127.032C208.054 127.032 207.692 113.953 205.631 102.021C203.862 91.509 193.8 73.3683 190.928 68.5508L196.047 68.5204C197.193 69.9355 203.5 78.4295 209.263 91.1925C215.604 105.374 216.953 140.914 216.955 141.198C216.958 141.767 216.491 206.61 216.552 216.847C216.584 222.25 216.618 227.938 216.646 232.772C216.67 236.753 216.697 241.303 216.726 246.138C216.738 248.128 216.465 250.121 216.479 252.396C214.689 286.248 211.945 303.043 211.947 303.327L207.788 369.045C207.505 369.331 205.52 370.196 198.129 370.809C189.601 371.428 183.039 367.77 181.612 366.926C181.586 362.66 180.217 323.707 179.816 304.087C179.461 292.145 179.901 270.529 180.09 254.603L178.669 254.611C177.592 264.855 176.236 275.955 175.153 285.061C174.08 295.874 172.993 304.412 172.717 305.836C172.448 308.397 171.11 370.401 171.147 376.657Z" fill="#9A9A9A"/>
<path d="M158.204 160.887C158.156 152.924 147.941 108.906 144.764 100.677C140.722 90.4635 136.128 83.0969 131.312 86.2537C126.496 89.4106 122.258 93.986 121.484 107.357C120.71 120.727 137.84 179.777 143.272 184.58C148.42 189.384 154.385 188.211 160.919 187.034C171.998 184.978 209.501 179.067 209.501 179.067C209.501 179.067 203.45 165.737 199.166 162.634C194.88 159.247 193.165 157.835 193.165 157.835L158.204 160.887Z" fill="#F8F8F8"/>
<path d="M152.396 188.507C154.956 188.491 157.796 187.906 160.354 187.606L160.638 187.604C171.432 185.549 208.936 179.639 209.22 179.637L210.074 179.632L209.784 178.78C209.496 178.213 203.447 165.168 199.162 162.065C194.878 158.962 193.162 157.266 193.162 157.266L192.876 156.983L158.768 160.03C158.141 150.365 148.51 108.902 145.331 100.389C141.578 91.0271 138.422 86.2113 135.002 85.0941C133.577 84.5338 132.157 84.8266 130.74 85.6882C125.923 88.5607 121.401 93.4222 120.631 107.362C119.854 120.163 136.703 179.784 142.423 185.153C145.566 187.694 148.984 188.527 152.396 188.507ZM208.359 178.22C202.392 179.109 170.571 184.133 160.63 186.182L160.345 186.184C154.096 187.359 148.698 188.244 143.552 183.725C138.69 179.203 121.278 120.439 122.051 107.069C122.825 93.6981 127.065 89.4071 131.598 86.5363C132.448 85.9625 133.584 85.6713 134.44 86.235C137.289 87.0712 140.448 92.1713 143.911 100.682C147.088 108.91 157.303 152.929 157.349 160.607L157.354 161.461L192.314 158.124C192.886 158.69 194.601 160.101 198.028 162.64C202.027 165.461 206.92 175.385 208.359 178.22Z" fill="#9A9A9A"/>
<path d="M158.182 204.966C158.182 204.966 164.524 219.432 157.745 227.151C153.789 231.44 147.538 232.33 142.704 232.359C139.007 232.381 135.86 229.272 135.838 225.575C135.818 222.162 136.077 217.895 136.62 213.626C137.991 205.086 137.991 205.086 137.991 205.086C140.591 211.896 149.449 218.953 158.182 204.966Z" fill="#F8F8F8"/>
<path d="M142.707 232.928C147.541 232.899 154.077 232.007 158.315 227.432C165.377 219.427 159.321 205.244 159.033 204.677L158.458 203.543L157.611 204.685C154.231 210.109 150.549 212.69 146.851 212.428C143.151 211.881 140.002 208.487 138.844 205.081L137.976 202.527L136.053 213.914C135.505 217.33 135.244 221.313 135.271 225.863C135.295 229.844 138.726 232.952 142.707 232.928ZM158.19 206.388C159.634 210.077 162.825 220.58 157.456 226.299C153.782 230.303 147.533 231.477 142.983 231.504C139.57 231.525 136.994 228.696 136.975 225.568C136.95 221.302 137.211 217.32 137.759 213.904L138.86 207.641C140.584 210.759 143.445 213.585 147.144 213.848C149.703 213.833 153.679 212.956 158.19 206.388Z" fill="#9A9A9A"/>
<path d="M164.033 136.964C164.05 139.808 166.341 142.354 169.469 142.335C172.313 142.318 174.859 140.028 174.84 136.9C174.823 134.056 172.533 131.51 169.404 131.529C166.276 131.547 164.015 133.836 164.033 136.964Z" fill="#F8F8F8"/>
<path d="M169.472 142.904C172.885 142.884 175.427 140.025 175.409 136.896C175.389 133.484 172.529 130.941 169.401 130.96C166.273 130.978 163.446 133.839 163.465 136.967C163.483 140.096 166.06 142.924 169.472 142.904ZM169.408 132.097C171.967 132.082 173.97 134.061 173.985 136.621C174 139.18 172.022 141.183 169.462 141.198C166.903 141.213 164.9 139.234 164.885 136.675C164.871 134.4 166.848 132.113 169.408 132.097Z" fill="#9A9A9A"/>
<path d="M202.724 139.294L287.606 400.991L277.084 401.054L195.904 140.187L202.724 139.294Z" fill="#F8F8F8"/>
<path d="M276.803 401.624L288.462 401.554L203.005 138.723L195.048 139.623L195.335 140.19L276.803 401.624ZM286.749 400.427L277.649 400.481L196.761 140.751L202.445 140.148L286.749 400.427Z" fill="#9A9A9A"/>
<path d="M196.021 159.808C196.021 159.808 201.106 154.091 203.096 154.079C205.087 154.067 208.503 154.615 211.653 158.294C214.803 161.972 215.126 168.511 214.001 170.508C212.875 172.505 211.46 173.651 207.485 174.813C203.227 175.975 203.731 165.166 196.021 159.808Z" fill="#F8F8F8"/>
<path d="M206.636 175.387C206.92 175.385 207.205 175.383 207.205 175.383C211.463 174.22 212.879 173.074 214.003 170.793C215.411 168.509 214.803 161.972 211.651 158.009C208.501 154.331 205.085 153.783 202.809 153.512C200.818 153.524 196.297 158.385 195.451 159.528L195.17 160.098L195.74 160.379C199.738 163.199 201.468 167.17 202.626 170.576C203.779 173.129 204.93 175.397 206.636 175.387ZM202.815 154.649C203.1 154.648 203.1 154.648 202.815 154.649C205.09 154.636 207.938 155.188 210.802 158.583C213.952 162.261 213.989 168.518 213.146 170.229C212.02 172.226 210.888 173.086 206.913 174.247C205.493 174.54 204.916 173.122 203.476 170.002C202.319 166.881 200.303 162.627 196.59 159.805C198.851 157.517 201.962 154.654 202.815 154.649Z" fill="#9A9A9A"/>
<path d="M222.996 200.6C222.996 200.6 230.693 203.683 232.155 210.499C233.617 217.316 230.247 224.445 230.247 224.445L222.996 200.6Z" fill="#F8F8F8"/>
<path d="M230.257 226.152L230.818 224.727C230.816 224.442 234.186 217.312 232.724 210.496C231.26 203.395 223.563 200.313 223.277 200.03L222.136 199.468L230.257 226.152ZM224.14 201.731C226.137 202.857 230.704 205.673 231.588 210.787C232.47 215.616 231.077 220.459 230.239 223.024L224.14 201.731Z" fill="#9A9A9A"/>
</g>
<defs>
<clipPath id="clip0_60906_345">
<rect width="216.982" height="410.644" fill="white" transform="matrix(-0.999982 0.00594872 0.00594872 0.999982 336.979 0)"/>
</clipPath>
</defs>
</svg>
