<svg width="276" height="189" viewBox="0 0 276 189" fill="none" xmlns="http://www.w3.org/2000/svg">
<path d="M96.9385 56.4948L5.30181 84.8165C4.2742 85.1341 3.69871 86.2244 4.01642 87.2516L4.59509 89.1227C4.9128 90.15 6.00339 90.7253 7.03099 90.4077L98.6677 62.086C99.6953 61.7684 100.271 60.6781 99.9531 59.6509L99.3744 57.7798C99.0567 56.7525 97.9661 56.1772 96.9385 56.4948Z" fill="#E6EDF6"/>
<path d="M93.4973 45.3425L1.86064 73.6642C0.833038 73.9818 0.25755 75.072 0.575254 76.0993L1.15393 77.9704C1.47163 78.9976 2.56222 79.5729 3.58983 79.2553L95.2265 50.9336C96.2541 50.616 96.8296 49.5258 96.5119 48.4985L95.9332 46.6275C95.6155 45.6002 94.5249 45.0249 93.4973 45.3425Z" fill="#E6EDF6"/>
<path d="M52.474 0.326172L32.5465 28.2431L56.4734 24.245L52.474 0.326172Z" fill="white"/>
<path d="M105.637 187.958L111.433 188.606C111.105 188.624 110.776 188.624 110.448 188.606L104.651 187.958C104.98 187.975 105.309 187.975 105.637 187.958Z" fill="#858585"/>
<path d="M68.6346 149.969L68.6347 149.969L73.9208 29.8529L73.9209 29.8524C74.1578 24.3489 77.8024 20.0982 81.8374 20.0981C81.8374 20.0981 81.8374 20.0981 81.8375 20.0981L267.549 20.1329C271.553 20.1329 274.81 24.3405 274.573 29.8441L269.287 149.924C269.039 155.417 265.394 159.668 261.359 159.668H75.6587C71.6542 159.668 68.3866 155.459 68.6346 149.969Z" fill="white" stroke="#A8E0FF"/>
<path d="M259.53 58.9878C259.914 58.9878 260.307 58.9934 260.663 59.1406C260.766 59.1835 260.867 59.234 260.963 59.2918C261.226 59.4486 261.455 59.6557 261.637 59.9013C261.819 60.1469 261.951 60.4261 262.024 60.7228C262.098 61.0194 262.112 61.3278 262.066 61.63L261.753 68.5831C261.788 69.2167 261.584 69.8402 261.18 70.3297C260.776 70.8193 260.203 71.139 259.574 71.2253H226.86C225.701 71.2253 224.855 70.0665 224.912 68.5831L225.225 61.63C225.19 60.9982 225.393 60.3762 225.795 59.8869C226.196 59.3976 226.767 59.0768 227.393 58.9878H259.53Z" fill="#358FC1" fill-opacity="0.1"/>
<path d="M260.64 32.0791C261.799 32.0791 262.645 33.238 262.576 34.7213L262.077 46.1361C262.107 46.7683 261.9 47.3891 261.498 47.8774C261.219 48.2153 260.86 48.4732 260.458 48.6302C260.098 48.7708 259.704 48.7783 259.318 48.7783H207.85C207.44 48.7783 207.018 48.7716 206.643 48.6041C206.279 48.4412 205.959 48.1853 205.719 47.8575C205.356 47.3621 205.204 46.743 205.297 46.1361L205.796 34.7213C205.764 34.0884 205.969 33.4663 206.373 32.9774C206.776 32.4884 207.348 32.168 207.975 32.0791H260.64Z" fill="#358FC1" fill-opacity="0.1"/>
<path d="M120.591 60.0771C121.751 60.0771 122.608 61.236 122.55 62.7193V63.8782C122.585 64.5117 122.381 65.1353 121.977 65.6248C121.573 66.1143 121 66.4341 120.371 66.5204H87.5527C86.3934 66.5204 85.5472 65.3615 85.6051 63.8782V62.7193C85.5671 62.0869 85.7692 61.4635 86.1711 60.9736C86.573 60.4838 87.1451 60.1636 87.7729 60.0771H120.591Z" fill="#358FC1" fill-opacity="0.1"/>
<path d="M164.19 60.0771C165.35 60.0771 166.196 61.236 166.138 62.7193V63.8782C166.168 64.5105 165.961 65.1312 165.558 65.6196C165.279 65.9575 164.921 66.2153 164.518 66.3724C164.159 66.5129 163.765 66.5204 163.378 66.5204H134.525C133.366 66.5204 132.52 65.3615 132.578 63.8782V62.7193C132.54 62.0852 132.744 61.4602 133.148 60.9701C133.552 60.4799 134.127 60.1609 134.757 60.0771H164.19Z" fill="#358FC1" fill-opacity="0.1"/>
<path d="M143.553 32.0562C143.949 32.0562 144.354 32.0622 144.717 32.2178C144.815 32.2599 144.911 32.3087 145.003 32.3642C145.265 32.5223 145.493 32.7307 145.674 32.9775C145.855 33.2242 145.985 33.5043 146.058 33.8016C146.111 34.02 146.132 34.2445 146.12 34.468C146.112 34.6298 146.095 34.7913 146.095 34.9533C146.127 35.5862 145.921 36.2083 145.518 36.6973C145.115 37.1862 144.543 37.5066 143.915 37.5955H88.5495C87.3903 37.5955 86.544 36.4366 86.602 34.9533V34.7099C86.5694 34.0757 86.7747 33.4522 87.1778 32.9613C87.4573 32.621 87.818 32.3614 88.2224 32.2037C88.5818 32.0636 88.975 32.0562 89.3608 32.0562H143.553Z" fill="#358FC1" fill-opacity="0.1"/>
<path d="M165.929 39.2056C167.089 39.2056 167.935 40.3644 167.877 41.8478V42.0911C167.907 42.7234 167.7 43.3441 167.297 43.8325C167.018 44.1704 166.66 44.4282 166.257 44.5853C165.897 44.7258 165.504 44.7333 165.117 44.7333H88.471C88.0603 44.7333 87.6389 44.7267 87.2639 44.5592C86.8991 44.3962 86.5794 44.1404 86.3392 43.8126C86.0244 43.383 85.8687 42.8603 85.8937 42.3332C85.9014 42.1714 85.918 42.0098 85.918 41.8478C85.88 41.2154 86.0821 40.5919 86.484 40.102C86.8859 39.6122 87.458 39.292 88.0858 39.2056H165.929Z" fill="#358FC1" fill-opacity="0.1"/>
<path d="M166.842 47.0166C167.06 47.0166 167.29 47.0132 167.477 47.1256C167.571 47.182 167.653 47.2567 167.718 47.3453C167.783 47.4338 167.829 47.5344 167.854 47.6412C167.905 47.8536 167.877 48.0788 167.835 48.2932C167.738 48.8034 167.416 49.1257 167.077 49.1257H86.9418C86.7233 49.1257 86.4938 49.1291 86.3065 49.0167C86.2124 48.9603 86.1305 48.8856 86.0657 48.7971C86.0009 48.7085 85.9544 48.6079 85.9291 48.5012C85.8787 48.2887 85.9071 48.0636 85.9482 47.8491C86.0459 47.3389 86.3681 47.0166 86.7064 47.0166H166.842Z" fill="#358FC1" fill-opacity="0.1"/>
<path d="M260.084 79.5225C260.148 79.5294 260.209 79.5493 260.264 79.5809C260.32 79.6126 260.368 79.6553 260.406 79.7064C260.444 79.7575 260.471 79.8159 260.486 79.878C260.514 80.0012 260.506 80.1341 260.471 80.2556C260.452 80.3221 260.419 80.3848 260.376 80.4398C260.21 80.6477 259.905 80.635 259.639 80.635H85.3159C85.2509 80.6267 85.1882 80.6051 85.1319 80.5716C85.0756 80.538 85.0269 80.4931 84.9888 80.4397C84.9507 80.3864 84.924 80.3258 84.9105 80.2617C84.8836 80.1344 84.8951 79.9975 84.9363 79.8741C84.9566 79.8134 84.9881 79.7565 85.0296 79.7064C85.1134 79.6054 85.2322 79.5398 85.3623 79.5225H260.084Z" fill="#8770FF" fill-opacity="0.1"/>
<path d="M61.5844 99.0229L69.2586 100.321L75.449 108.016L67.7863 106.718L61.5844 99.0229Z" fill="#89D4F4"/>
<path d="M76.8049 77.9437C66.534 76.1012 56.5644 83.1818 52.5766 92.36C47.7309 102.79 49.806 116.696 59.022 124.101C61.2478 125.89 63.8219 127.197 66.5803 127.937C67.7396 128.296 74.6951 129.339 75.9471 129.594C72.5517 128.999 69.3618 127.556 66.6731 125.399C49.4118 111.493 58.5583 78.9404 81.6622 78.9635C82.5984 78.988 83.5319 79.0771 84.456 79.2301L76.8049 77.9437Z" fill="#358FC1"/>
<path d="M89.7303 97.8296L97.4045 99.1275L74.6021 122.849L66.9395 121.551L89.7303 97.8296Z" fill="#358FC1"/>
<path d="M83.609 90.251L91.2832 91.5489L97.4041 99.1278L89.7298 97.8299L83.609 90.251Z" fill="#89D4F4"/>
<g filter="url(#filter0_i_123_1533)">
<path d="M75.181 67.1892H74.6014C57.0851 66.7488 41.9569 82.4977 40.8209 102.349C39.6616 121.98 52.6684 138.274 69.8948 139.073H70.4745C88.0023 139.502 103.131 123.765 104.267 103.913C105.403 84.3403 92.4191 67.9772 75.181 67.1892ZM95.0042 103.682C94.1927 117.715 83.4697 128.875 71.0773 128.574H70.6715C58.4878 128.029 49.2834 116.464 50.0717 102.581C50.86 88.6976 61.6178 77.3872 74.0102 77.6769H74.4159C86.588 78.2331 95.8041 89.7985 95.0042 103.682Z" fill="#23B5E3"/>
<path d="M75.181 67.1892H74.6014C57.0851 66.7488 41.9569 82.4977 40.8209 102.349C39.6616 121.98 52.6684 138.274 69.8948 139.073H70.4745C88.0023 139.502 103.131 123.765 104.267 103.913C105.403 84.3403 92.4191 67.9772 75.181 67.1892ZM95.0042 103.682C94.1927 117.715 83.4697 128.875 71.0773 128.574H70.6715C58.4878 128.029 49.2834 116.464 50.0717 102.581C50.86 88.6976 61.6178 77.3872 74.0102 77.6769H74.4159C86.588 78.2331 95.8041 89.7985 95.0042 103.682Z" fill="url(#paint0_radial_123_1533)" fill-opacity="0.53"/>
</g>
<path d="M112 103.253C112.29 89.8453 105.044 75.7883 92.2925 70.5735C88.7452 68.8815 82.4504 68.2557 78.6133 67.5488C98.3206 70.8748 108.047 93.3334 103.166 111.458C99.5146 127.682 83.7488 141.751 66.5455 138.691C70.7188 139.236 76.8397 140.835 81.013 140.279C99.248 138.946 112.116 120.74 112 103.253Z" fill="#358FC1"/>
<g filter="url(#filter1_i_123_1533)">
<path d="M66.9271 121.552L89.7295 97.8299L83.6087 90.251L67.7849 106.718L61.5829 99.0235L54.6042 106.29L66.9271 121.552Z" fill="#23B5E3"/>
<path d="M66.9271 121.552L89.7295 97.8299L83.6087 90.251L67.7849 106.718L61.5829 99.0235L54.6042 106.29L66.9271 121.552Z" fill="url(#paint1_radial_123_1533)" fill-opacity="0.53"/>
</g>
<defs>
<filter id="filter0_i_123_1533" x="40.749" y="67.1802" width="64.3581" height="71.9016" filterUnits="userSpaceOnUse" color-interpolation-filters="sRGB">
<feFlood flood-opacity="0" result="BackgroundImageFix"/>
<feBlend mode="normal" in="SourceGraphic" in2="BackgroundImageFix" result="shape"/>
<feColorMatrix in="SourceAlpha" type="matrix" values="0 0 0 0 0 0 0 0 0 0 0 0 0 0 0 0 0 0 127 0" result="hardAlpha"/>
<feOffset dx="0.771266"/>
<feGaussianBlur stdDeviation="0.385633"/>
<feComposite in2="hardAlpha" operator="arithmetic" k2="-1" k3="1"/>
<feColorMatrix type="matrix" values="0 0 0 0 1 0 0 0 0 1 0 0 0 0 1 0 0 0 1 0"/>
<feBlend mode="normal" in2="shape" result="effect1_innerShadow_123_1533"/>
</filter>
<filter id="filter1_i_123_1533" x="54.6042" y="90.251" width="35.8965" height="31.3008" filterUnits="userSpaceOnUse" color-interpolation-filters="sRGB">
<feFlood flood-opacity="0" result="BackgroundImageFix"/>
<feBlend mode="normal" in="SourceGraphic" in2="BackgroundImageFix" result="shape"/>
<feColorMatrix in="SourceAlpha" type="matrix" values="0 0 0 0 0 0 0 0 0 0 0 0 0 0 0 0 0 0 127 0" result="hardAlpha"/>
<feOffset dx="0.771266"/>
<feGaussianBlur stdDeviation="0.385633"/>
<feComposite in2="hardAlpha" operator="arithmetic" k2="-1" k3="1"/>
<feColorMatrix type="matrix" values="0 0 0 0 1 0 0 0 0 1 0 0 0 0 1 0 0 0 1 0"/>
<feBlend mode="normal" in2="shape" result="effect1_innerShadow_123_1533"/>
</filter>
<radialGradient id="paint0_radial_123_1533" cx="0" cy="0" r="1" gradientUnits="userSpaceOnUse" gradientTransform="translate(45.4522 113.653) rotate(-38.2817) scale(75.0134 599.565)">
<stop stop-color="#03E2E2"/>
<stop offset="0.0001" stop-color="#50FFFF"/>
<stop offset="1" stop-color="#0085FF" stop-opacity="0"/>
</radialGradient>
<radialGradient id="paint1_radial_123_1533" cx="0" cy="0" r="1" gradientUnits="userSpaceOnUse" gradientTransform="translate(57.2023 110.482) rotate(-31.8804) scale(38.3055 282.347)">
<stop stop-color="#03E2E2"/>
<stop offset="0.0001" stop-color="#50FFFF"/>
<stop offset="1" stop-color="#0085FF" stop-opacity="0"/>
</radialGradient>
</defs>
</svg>
