<svg width="14" height="15" viewBox="0 0 14 15" fill="none" xmlns="http://www.w3.org/2000/svg">
<path d="M3.05455 0.5C3.05455 0.5 1.90909 0.5 1.78182 0.5C1.65455 0.5 0 1.64545 0 3.17273C0 3.80909 0 4.06364 0 4.44545C0 4.82727 1.27273 8.51818 3.94545 10.9364C6.49091 13.4818 8.90909 14.5 10.9455 14.5C12.9818 14.5 14 12.7182 14 12.4636C14 12.3364 14 11.1909 14 10.9364C14 10.8091 13.8727 10.6818 13.6182 10.4273C13.3636 10.3 11.0727 9.02727 11.0727 9.02727C11.0727 9.02727 10.5636 9.02727 10.3091 9.40909C10.1818 9.66364 9.03636 10.9364 9.03636 10.9364C9.03636 10.9364 8.01818 11.4455 5.72727 9.15455C3.56364 6.86364 3.43636 6.1 3.69091 5.84545C3.94545 5.59091 4.70909 4.82727 4.70909 4.44545C4.70909 4.06364 4.70909 4.19091 4.70909 3.93636C4.70909 3.80909 3.43636 0.627273 3.43636 0.627273C3.43636 0.627273 3.18182 0.5 3.05455 0.5Z" fill="#00B3CB"/>
</svg>
