<svg width="137" height="115" viewBox="0 0 137 115" fill="none" xmlns="http://www.w3.org/2000/svg">
<path d="M31.213 84.9886C31.213 84.9886 29.3192 85.9924 31.1337 84.8826C31.6502 84.5787 32.3786 84.1163 33.5177 83.4292C32.2593 84.2882 31.4249 84.83 31.213 84.9886Z" fill="#23B5E3"/>
<path d="M31.213 84.9886C31.213 84.9886 29.3192 85.9924 31.1337 84.8826C31.6502 84.5787 32.3786 84.1163 33.5177 83.4292C32.2593 84.2882 31.4249 84.83 31.213 84.9886Z" fill="url(#paint0_radial_123_1438)" fill-opacity="0.53"/>
<path d="M8.47532 96.135C8.80658 95.8045 9.17747 95.5269 9.50872 95.1964L9.89296 94.8262C10.1712 94.5353 10.5421 94.2578 10.86 94.0199C11.019 93.9009 11.2309 93.7424 11.3899 93.6234L11.4429 93.5837C11.9197 93.2269 12.4099 92.7774 12.8868 92.4206C13.0988 92.262 13.3107 92.1034 13.5226 91.9448C14.3174 91.35 15.1652 90.7156 16.0526 90.1342C17.0593 89.3809 18.1983 88.6938 19.3507 87.9142C24.2117 84.6899 29.2179 81.7702 32.5686 79.8414C36.5418 77.5295 40.1308 75.5877 42.753 74.1214L43.1106 73.9365C45.8255 72.4835 47.4147 71.6249 47.4147 71.6249C50.2885 70.0529 58.7511 65.4561 69.16 60.1465C71.3584 58.9974 73.6494 57.8616 75.9934 56.6862C74.6298 56.9627 73.3059 57.2921 71.9953 57.5289C68.8843 58.1212 66.3557 58.6082 64.0921 58.8969C64.0391 58.9366 63.9465 58.9232 63.9465 58.9232C62.9801 59.0678 62.4506 59.1334 62.4506 59.1334L62.0668 59.1727C61.9211 59.199 61.8285 59.1857 61.6829 59.212C61.4446 59.225 61.1534 59.2776 60.9151 59.2906L60.4386 59.3165C59.7239 59.3555 58.9561 59.434 58.2017 59.42C56.6399 59.4315 55.2766 59.3771 54.1254 59.1641C53.0271 58.9114 52.0877 58.5398 51.3604 58.0096C50.6726 57.5324 50.1438 56.9362 49.7873 56.1285C49.5628 55.7179 49.4972 55.1884 49.4445 54.8972C49.4182 54.7515 49.4053 54.5133 49.4319 54.328C49.4586 54.1428 49.4323 53.9971 49.459 53.8119L49.4723 53.7192C49.5123 53.4413 49.5523 53.1634 49.6849 52.8988C49.7249 52.6209 49.9106 52.3167 50.0432 52.0521L50.0962 52.0125C50.1759 51.7876 50.3482 51.576 50.5204 51.3644C50.5734 51.3248 50.6398 51.1925 50.6927 51.1528C50.7457 51.1132 50.7591 51.0205 50.812 50.9809C50.8784 50.8486 50.9314 50.809 51.0373 50.7297C51.1963 50.6107 51.3156 50.4388 51.4216 50.3595C51.5275 50.2802 51.5939 50.1479 51.6998 50.0686C51.8191 49.8966 52.0311 49.7381 52.19 49.6191C52.349 49.5002 52.5609 49.3416 52.6802 49.1696L52.9452 48.9714C53.2234 48.6805 53.634 48.4559 53.9519 48.218C54.1108 48.0991 54.2168 48.0198 54.3228 47.9405L54.3758 47.9008C54.4817 47.8215 54.5877 47.7422 54.6937 47.6629L54.4691 47.2524L54.9327 46.9882C55.5022 46.6446 55.7671 46.4464 55.7671 46.4464L56.138 46.1688L56.6015 45.9046C56.7075 45.8253 56.8135 45.746 56.9591 45.7197C57.3166 45.5348 57.6346 45.2969 58.0451 45.0723C58.8132 44.6629 59.5417 44.2004 60.3098 43.7909C61.846 42.972 63.4352 42.1134 65.2627 41.2418C68.4674 39.6702 72.109 38.0197 76.3994 36.1316C83.2587 33.1477 90.9917 30.006 100.155 26.4555C106.418 24.0004 113.012 21.5457 119.791 19.1177C124.823 17.3363 127.961 16.2279 127.961 16.2279C127.961 16.2279 125.114 17.2836 120.175 19.0784C113.131 21.7047 106.484 24.199 99.916 26.7994C91.243 30.2313 81.7621 34.0197 71.7511 38.5355C68.9173 39.8295 66.335 41.0179 64.044 42.1537C61.753 43.2895 59.0515 44.6499 56.2039 46.3675L54.6411 47.3717C54.4291 47.5303 54.2702 47.6492 54.0582 47.8078C53.7403 48.0457 53.4224 48.2836 53.1045 48.5215C53.0515 48.5612 53.0515 48.5612 52.9985 48.6008C51.9784 49.4468 50.9584 50.2928 50.4015 51.2055C50.2292 51.417 50.0569 51.6286 49.9773 51.8535C49.9639 51.9462 49.9109 51.9858 49.8976 52.0785C49.8313 52.2107 49.765 52.343 49.6986 52.4753L49.5126 53.1104C49.4993 53.2031 49.486 53.2957 49.433 53.3354C49.3667 53.4676 49.393 53.6133 49.3267 53.7455C49.313 54.1691 49.2859 54.6852 49.4045 55.1751C49.5098 55.7576 49.8137 56.2741 49.9589 56.5787C50.461 57.3601 51.0958 57.877 52.0218 58.3412C52.8155 58.7392 53.9534 59.0448 55.4489 59.1655L56.4813 59.2196C56.7195 59.2066 56.9048 59.2333 57.143 59.2203C57.2887 59.194 57.3813 59.2073 57.5269 59.181C58.0431 59.208 58.6122 59.1954 59.1417 59.1298C59.2874 59.1035 59.5256 59.0905 59.7109 59.1172L60.2404 59.0516L61.1538 58.9467L61.9215 58.8681C62.5436 58.8158 63.1658 58.7636 63.8012 58.6187C63.8542 58.579 63.9469 58.5923 63.9469 58.5923C64.5293 58.4871 65.2971 58.4085 66.1178 58.2903C68.8316 57.8299 72.3795 57.1588 75.9937 56.3553C76.4043 56.1307 76.7619 55.9458 77.2121 55.7742C73.4522 56.604 69.944 57.3282 66.7403 57.9071C65.3371 58.1306 64.0265 58.3674 62.7293 58.5116C62.1071 58.5639 61.432 58.6558 60.8495 58.7611L60.373 58.787L60.1348 58.8L59.7509 58.8393C59.2214 58.9049 58.7052 58.8779 58.1757 58.9435C56.0844 59.0206 54.258 58.8995 53.0011 58.4349C51.6913 58.01 50.8846 57.3738 50.3295 56.632C49.7744 55.8902 49.4182 54.7515 49.4719 54.0501C49.486 53.2957 49.7513 52.7666 49.8709 52.2637C50.0832 51.7742 50.2292 51.417 50.4545 51.1658C50.6268 50.9542 50.7461 50.7823 50.7461 50.7823C50.8654 50.6103 51.0377 50.3988 51.263 50.1475L51.8195 49.5658C52.2567 49.1559 52.7336 48.7991 53.1708 48.3892C53.6477 48.0324 54.1775 47.6359 54.694 47.332C55.1576 47.0678 55.6344 46.711 56.098 46.4468L56.4159 46.2089L56.6278 46.0503L57.0914 45.786C57.3959 45.6408 57.6609 45.4425 57.9654 45.2973C58.535 44.9538 59.1441 44.6632 59.6606 44.3594C61.8723 43.1176 64.0574 42.0611 66.0968 41.0309C70.0296 39.3278 73.7108 37.7302 76.7829 36.4232C79.855 35.1162 82.3179 34.0997 84.0128 33.4927C85.7209 32.793 86.6213 32.4499 86.6213 32.4499C95.7713 28.6611 102.921 25.9555 108.469 23.8703C114.017 21.785 117.91 20.3598 120.651 19.3833C126.133 17.4303 127.02 17.1798 127.02 17.1798L127.787 18.0939L126.951 19.6283L127.042 21.2961C127.821 23.1103 126.154 22.5393 126.154 22.5393C112.873 27.1045 100.202 31.7101 88.2582 36.515C82.2466 38.8645 76.4204 41.2406 70.8587 43.7494C68.0778 45.0038 65.3366 46.3111 62.7277 47.6848C61.4034 48.3452 60.1188 49.0585 58.8738 49.8248L58.0527 50.274C57.8408 50.4326 57.5362 50.5778 57.3773 50.6968C56.9137 50.961 56.4898 51.2782 56.013 51.635C55.5891 51.9522 55.1122 52.3091 54.7676 52.7323C54.5953 52.9439 54.423 53.1554 54.2904 53.42C54.1578 53.6846 54.2104 53.9758 54.316 54.2274C54.5802 54.6909 55.1757 54.8239 55.6785 54.9436C56.1813 55.0633 56.6975 55.0903 57.3063 55.1307C57.8224 55.1577 58.3916 55.1451 58.9607 55.1325L59.7681 55.1069L60.7742 55.0153C62.164 54.8844 63.4613 54.7402 64.8115 54.5564C70.1728 53.768 75.2829 52.7544 80.221 51.6215C83.8882 50.7783 87.4098 49.9615 90.7991 49.0784C94.1098 47.4275 97.4601 45.8296 100.718 44.2184C101.486 43.8089 102.704 43.2279 105.803 41.7356L105.843 41.7885L105.975 42.1858L106.832 44.4368C106.885 44.3971 107.031 44.3708 107.084 44.3311L107.493 45.4301C107.44 45.4698 107.295 45.4961 107.242 45.5358L108.1 47.7867L108.231 48.184C105.861 48.8829 100.38 50.505 93.6412 52.3242C85.4306 56.4846 75.8428 61.345 66.8374 66.1001C52.4155 73.6686 40.6816 80.3002 38.6552 81.5687C40.6816 80.3002 52.4155 73.6686 66.8374 66.1001C75.8428 61.345 85.3777 56.5242 93.5883 52.3639C92.7012 52.6144 91.7745 52.8119 90.8344 53.1021C81.0613 57.9358 73.1419 62.0435 67.0104 65.2267C57.8064 70.0478 53.0121 72.8089 53.0121 72.8089C42.2189 78.4886 36.4049 81.7648 33.3588 83.5483C35.0806 82.4251 37.5176 80.9321 39.9016 79.4788C42.6961 77.8008 45.4773 76.2156 46.9739 75.3436L42.1266 78.1444C38.6833 80.0598 35.1869 82.0149 31.7302 84.023C33.8097 82.7149 35.9287 81.4598 38.0478 80.2047C36.154 81.2086 31.8232 83.7055 27.9427 86.0307C26.0222 87.2199 24.2077 88.3297 22.9494 89.1887C21.6515 89.9947 20.8567 90.5894 20.8567 90.5894C22.8701 89.0827 28.7775 85.1581 36.6709 80.5738C44.5776 75.8969 54.4838 70.4678 64.1646 65.2898C71.1836 61.5252 78.1759 57.9459 84.1485 54.8817C83.6587 55.0003 83.1158 55.1585 82.626 55.2771C77.4215 57.9319 71.4489 60.9961 65.3173 64.1793C55.5572 69.2512 46.5251 74.1916 39.2145 78.3398C30.7253 83.1219 24.5004 86.9535 21.5202 88.9357C24.5004 86.9535 30.7253 83.1219 39.2145 78.3398C46.5251 74.1916 55.5968 69.3042 65.357 64.2323C71.4885 61.0491 77.4611 57.9849 82.6126 55.3698C82.3214 55.4224 82.0698 55.528 81.7786 55.5806C73.8859 59.5031 64.6026 64.2182 55.5838 69.066C45.1878 74.6137 35.1624 80.2148 27.7722 84.5879C24.0902 86.8472 21.0837 88.6837 18.991 90.0844C17.9446 90.7848 17.1102 91.3266 16.5803 91.7231C16.0505 92.1196 15.7459 92.2648 15.7459 92.2648C16.1168 91.9873 16.7526 91.5115 17.6004 90.8771C18.4481 90.2427 19.6005 89.463 20.9648 88.5248C23.68 86.7409 27.2693 84.4682 31.4545 81.9977C39.7851 77.0036 50.5653 71.0856 61.2659 65.3926C67.3048 62.1961 73.3438 58.9996 78.8528 56.1995C78.5086 56.2918 78.2173 56.3444 77.8731 56.4367C70.8278 60.0557 63.0144 64.0841 55.2803 68.2186C44.2222 74.0965 33.4683 80.1601 25.5349 85.0222C21.5483 87.4268 18.3166 89.5146 16.1045 91.0872C15.0052 91.8273 14.1044 92.5013 13.5216 92.9374C12.9387 93.3736 12.6208 93.6115 12.6208 93.6115C13.9588 92.5276 17.8267 89.6332 23.5881 86.0658C29.4025 82.4587 37.0839 78.033 45.9174 73.1586C55.466 67.9143 66.3518 62.248 77.5289 56.529C76.9464 56.6343 76.4036 56.7925 75.8211 56.8978C73.4771 58.0732 71.2258 59.262 68.9877 60.3581C58.5258 65.7073 50.1162 70.2645 47.2424 71.8365C47.2424 71.8365 45.6002 72.7347 42.9383 74.1481L42.5807 74.333C39.9585 75.7993 36.3695 77.7411 32.3963 80.053C29.0456 81.9818 24.079 84.9545 19.1784 88.1258C18.0261 88.9054 16.9797 89.6058 15.8803 90.3458C14.9929 90.9272 14.1451 91.5616 13.3503 92.1564C13.1384 92.315 12.9265 92.4736 12.7145 92.6322C12.6615 92.6718 12.5556 92.7511 12.5026 92.7908C12.0787 93.1079 11.6548 93.4251 11.2706 93.7953L11.2176 93.835C11.0586 93.9539 10.8467 94.1125 10.6877 94.2315C10.3698 94.4694 10.0519 94.7073 9.72067 95.0378L9.33643 95.408C9.17747 95.5269 8.84623 95.8575 8.47532 96.135C8.02478 96.6375 7.57422 97.14 7.12366 97.6424C7.6272 97.1003 8.07776 96.5978 8.47532 96.135ZM60.1211 59.2235L59.5916 59.2891C59.4063 59.2625 59.2077 59.3284 59.0224 59.3018C58.4929 59.3674 57.9238 59.38 57.4076 59.353C57.262 59.3793 57.1694 59.3659 57.0237 59.3922C56.7855 59.4052 56.5472 59.4182 56.362 59.3915L55.3296 59.3375C53.8871 59.1771 52.6962 58.9111 51.9025 58.5132C50.9765 58.0489 50.3021 57.4791 49.8396 56.7506C49.6017 56.4327 49.3905 55.9295 49.2852 55.347C49.1666 54.8572 49.1937 54.341 49.2074 53.9175C49.234 53.7322 49.2474 53.6396 49.3137 53.5073C49.327 53.4146 49.3404 53.322 49.3933 53.2824L49.5927 52.5546C49.659 52.4223 49.7253 52.29 49.7916 52.1578C49.805 52.0651 49.8579 52.0255 49.8713 51.9328C49.9509 51.7079 50.1232 51.4963 50.2955 51.2848C50.8524 50.3721 51.8725 49.5261 52.8925 48.6801C52.9455 48.6405 52.9455 48.6405 52.9985 48.6008C53.3164 48.3629 53.6343 48.125 53.9522 47.8871C54.1642 47.7285 54.3231 47.6096 54.5351 47.451L56.098 46.4468C58.8925 44.7688 61.647 43.3688 63.938 42.233C66.282 41.0576 68.8113 39.9088 71.6451 38.6148C81.7621 34.0197 91.2033 30.1783 99.916 26.7994C106.484 24.199 113.131 21.7047 120.175 19.0784C123.022 18.0226 125.167 17.244 126.464 16.7689C125.074 17.2307 122.731 18.0752 119.738 19.1573C113.051 21.5987 106.457 24.0534 100.155 26.4555C90.9917 30.006 83.2587 33.1477 76.4524 36.092C72.215 37.9404 68.5204 39.6306 65.3157 41.2021C63.4882 42.0737 61.846 42.972 60.3628 43.7513C59.5947 44.1608 58.8266 44.5702 58.0981 45.0327C57.7405 45.2176 57.3696 45.4952 57.0121 45.6801C56.9061 45.7594 56.8001 45.8387 56.6545 45.865L56.191 46.1292L55.8201 46.4067C55.8201 46.4067 55.5551 46.605 54.9856 46.9485L54.5221 47.2127L54.2572 47.411C54.1512 47.4903 54.0452 47.5696 53.9393 47.6489L53.8863 47.6885C53.7803 47.7678 53.6214 47.8868 53.5154 47.9661C53.1975 48.204 52.8796 48.4419 52.5087 48.7194L52.2437 48.9177C52.0848 49.0366 51.8728 49.1952 51.7535 49.3671C51.5416 49.5258 51.4223 49.6977 51.2633 49.8166C51.1573 49.8959 51.091 50.0282 50.9851 50.1075C50.8261 50.2265 50.7598 50.3588 50.6008 50.4777C50.4948 50.557 50.4815 50.6496 50.3755 50.7289C50.3226 50.7686 50.3092 50.8612 50.2562 50.9009C50.2032 50.9405 50.1369 51.0728 50.0839 51.1125C49.9117 51.324 49.7394 51.5356 49.7127 51.7209L49.6597 51.7606C49.5271 52.0251 49.3944 52.2897 49.3014 52.6072C49.2218 52.8322 49.1288 53.1497 49.0888 53.4276L49.0754 53.5203C49.0488 53.7055 49.0751 53.8512 49.0484 54.0364C49.0217 54.2217 49.0877 54.4203 49.061 54.6056C49.1137 54.8968 49.2323 55.3867 49.4038 55.8369C49.8133 56.605 50.2495 57.1878 50.9768 57.718C51.6646 58.1953 52.6039 58.5669 53.7419 58.8725C54.8931 59.0855 56.2563 59.1399 57.8182 59.1284C58.6915 59.3014 59.446 59.3154 60.1211 59.2235L60.452 59.2239L60.1211 59.2235ZM68.4211 58.0545C69.4934 57.8307 70.6054 57.6598 71.8234 57.4096C73.1869 57.1332 74.5505 56.8567 75.9141 56.5802C75.9141 56.5802 75.9141 56.5802 75.9671 56.5406C73.2796 57.1465 70.698 57.6731 68.4211 58.0545ZM76.0597 56.5539C76.1523 56.5672 76.2583 56.4879 76.3509 56.5013C76.8408 56.3827 77.2777 56.3037 77.7675 56.1851C78.1781 55.9606 78.5886 55.736 78.9858 55.6041C78.4033 55.7093 77.8605 55.8676 77.225 56.0125C76.8278 56.1444 76.4702 56.3293 76.0597 56.5539ZM101.51 45.9399C101.312 46.0058 101.113 46.0718 100.967 46.0981C100.464 46.3093 99.855 46.5999 99.1002 46.9167C99.4444 46.8244 99.7357 46.7718 100.08 46.6795C100.636 46.4287 101.153 46.1248 101.51 45.9399ZM103.405 43.6124C102.346 44.0745 98.5454 45.844 93.0497 48.5514C93.3013 48.4458 93.5396 48.4328 93.7912 48.3272C99.6974 45.3953 103.405 43.6124 103.405 43.6124ZM102.265 45.623C101.96 45.7683 101.563 45.9002 101.007 46.1511C101.206 46.0851 101.351 46.0588 101.55 45.9929C102.013 45.7286 102.265 45.623 102.265 45.623ZM108.152 47.7471C103.902 49.0264 99.6658 50.213 95.6277 51.3337C95.0715 51.5846 94.555 51.8884 93.9988 52.1393C98.6194 50.9134 103.399 49.5685 108.284 48.1443L108.152 47.7471ZM95.535 51.3203C94.648 51.5709 93.6683 51.8081 92.7812 52.0586C92.2251 52.3094 91.7085 52.6133 91.2053 52.8245C92.0924 52.574 93.0191 52.3765 93.9592 52.0863C94.5153 51.8354 95.0185 51.6242 95.535 51.3203ZM85.857 53.8512C85.804 53.8908 85.7114 53.8775 85.7114 53.8775C85.2216 53.9961 84.7847 54.075 84.3345 54.2466C83.9239 54.4711 83.4208 54.6824 83.0102 54.9069C83.5001 54.7883 84.0429 54.6301 84.5327 54.5115C84.9829 54.3399 85.3935 54.1154 85.857 53.8512ZM84.2815 54.2862C83.9903 54.3389 83.7387 54.4445 83.5004 54.4574C83.0899 54.682 82.5867 54.8932 82.1232 55.1575C82.4144 55.1048 82.666 54.9992 82.9572 54.9466C83.3678 54.722 83.7783 54.4975 84.2815 54.2862ZM80.2171 55.2613C79.8729 55.3536 79.5816 55.4062 79.2374 55.4985C78.8269 55.723 78.4163 55.9476 78.0191 56.0795C78.3633 55.9872 78.6546 55.9346 78.9988 55.8423C79.449 55.6708 79.8595 55.4462 80.2171 55.2613ZM92.7585 48.604C97.2345 46.4117 101.618 44.2061 105.935 42.1328L105.803 41.7356C101.022 44.0731 95.9372 46.5559 90.8521 49.0388C91.5272 48.9468 92.1627 48.8019 92.7585 48.604ZM101.168 44.0468C102.744 43.2808 104.32 42.5149 105.843 41.7885C103.207 43.0166 101.936 43.6373 101.168 44.0468ZM107.599 45.3508L107.19 44.2518C107.137 44.2915 106.991 44.3178 106.938 44.3575L107.07 44.7547C107.123 44.715 107.216 44.7284 107.322 44.6491L107.467 44.9536C107.414 44.9933 107.361 45.0329 107.216 45.0592L107.348 45.4565C107.44 45.4698 107.493 45.4301 107.599 45.3508ZM108.284 48.1443C103.399 49.5685 98.6194 50.9134 93.9458 52.1789C93.8928 52.2186 93.8399 52.2582 93.7472 52.2449C100.526 50.4786 105.914 48.8432 108.284 48.1443ZM93.6942 52.2846C93.7472 52.2449 93.8002 52.2053 93.8928 52.2186C93.0058 52.4691 92.0261 52.7063 91.139 52.9568C91.086 52.9965 91.0331 53.0361 90.9404 53.0228C91.8805 52.7326 92.8602 52.4954 93.6942 52.2846ZM84.3208 54.6701C84.3738 54.6305 84.3738 54.6305 84.4268 54.5908C83.9369 54.7094 83.3941 54.8676 82.9042 54.9862C82.8513 55.0259 82.8513 55.0259 82.7983 55.0655C83.3411 54.9073 83.831 54.7887 84.3208 54.6701ZM82.7586 55.0125C82.8116 54.9729 82.8116 54.9729 82.8646 54.9332C82.5734 54.9859 82.3218 55.0915 82.0305 55.1441C81.9775 55.1838 81.9775 55.1838 81.9245 55.2234C82.2158 55.1708 82.507 55.1182 82.7586 55.0125ZM78.8928 55.9216L78.9458 55.882C78.6016 55.9743 78.3103 56.0269 77.9661 56.1192L77.9131 56.1588C78.2574 56.0665 78.5486 56.0139 78.8928 55.9216ZM77.6219 56.2114C77.6749 56.1718 77.6749 56.1718 77.6219 56.2114C77.185 56.2904 76.7482 56.3693 76.3113 56.4483C76.1657 56.4746 76.1127 56.5142 75.9671 56.5406C75.9671 56.5406 75.9671 56.5406 75.9141 56.5802C76.4966 56.4749 77.0791 56.3697 77.6219 56.2114Z" fill="#23B5E3"/>
<path d="M8.47532 96.135C8.80658 95.8045 9.17747 95.5269 9.50872 95.1964L9.89296 94.8262C10.1712 94.5353 10.5421 94.2578 10.86 94.0199C11.019 93.9009 11.2309 93.7424 11.3899 93.6234L11.4429 93.5837C11.9197 93.2269 12.4099 92.7774 12.8868 92.4206C13.0988 92.262 13.3107 92.1034 13.5226 91.9448C14.3174 91.35 15.1652 90.7156 16.0526 90.1342C17.0593 89.3809 18.1983 88.6938 19.3507 87.9142C24.2117 84.6899 29.2179 81.7702 32.5686 79.8414C36.5418 77.5295 40.1308 75.5877 42.753 74.1214L43.1106 73.9365C45.8255 72.4835 47.4147 71.6249 47.4147 71.6249C50.2885 70.0529 58.7511 65.4561 69.16 60.1465C71.3584 58.9974 73.6494 57.8616 75.9934 56.6862C74.6298 56.9627 73.3059 57.2921 71.9953 57.5289C68.8843 58.1212 66.3557 58.6082 64.0921 58.8969C64.0391 58.9366 63.9465 58.9232 63.9465 58.9232C62.9801 59.0678 62.4506 59.1334 62.4506 59.1334L62.0668 59.1727C61.9211 59.199 61.8285 59.1857 61.6829 59.212C61.4446 59.225 61.1534 59.2776 60.9151 59.2906L60.4386 59.3165C59.7239 59.3555 58.9561 59.434 58.2017 59.42C56.6399 59.4315 55.2766 59.3771 54.1254 59.1641C53.0271 58.9114 52.0877 58.5398 51.3604 58.0096C50.6726 57.5324 50.1438 56.9362 49.7873 56.1285C49.5628 55.7179 49.4972 55.1884 49.4445 54.8972C49.4182 54.7515 49.4053 54.5133 49.4319 54.328C49.4586 54.1428 49.4323 53.9971 49.459 53.8119L49.4723 53.7192C49.5123 53.4413 49.5523 53.1634 49.6849 52.8988C49.7249 52.6209 49.9106 52.3167 50.0432 52.0521L50.0962 52.0125C50.1759 51.7876 50.3482 51.576 50.5204 51.3644C50.5734 51.3248 50.6398 51.1925 50.6927 51.1528C50.7457 51.1132 50.7591 51.0205 50.812 50.9809C50.8784 50.8486 50.9314 50.809 51.0373 50.7297C51.1963 50.6107 51.3156 50.4388 51.4216 50.3595C51.5275 50.2802 51.5939 50.1479 51.6998 50.0686C51.8191 49.8966 52.0311 49.7381 52.19 49.6191C52.349 49.5002 52.5609 49.3416 52.6802 49.1696L52.9452 48.9714C53.2234 48.6805 53.634 48.4559 53.9519 48.218C54.1108 48.0991 54.2168 48.0198 54.3228 47.9405L54.3758 47.9008C54.4817 47.8215 54.5877 47.7422 54.6937 47.6629L54.4691 47.2524L54.9327 46.9882C55.5022 46.6446 55.7671 46.4464 55.7671 46.4464L56.138 46.1688L56.6015 45.9046C56.7075 45.8253 56.8135 45.746 56.9591 45.7197C57.3166 45.5348 57.6346 45.2969 58.0451 45.0723C58.8132 44.6629 59.5417 44.2004 60.3098 43.7909C61.846 42.972 63.4352 42.1134 65.2627 41.2418C68.4674 39.6702 72.109 38.0197 76.3994 36.1316C83.2587 33.1477 90.9917 30.006 100.155 26.4555C106.418 24.0004 113.012 21.5457 119.791 19.1177C124.823 17.3363 127.961 16.2279 127.961 16.2279C127.961 16.2279 125.114 17.2836 120.175 19.0784C113.131 21.7047 106.484 24.199 99.916 26.7994C91.243 30.2313 81.7621 34.0197 71.7511 38.5355C68.9173 39.8295 66.335 41.0179 64.044 42.1537C61.753 43.2895 59.0515 44.6499 56.2039 46.3675L54.6411 47.3717C54.4291 47.5303 54.2702 47.6492 54.0582 47.8078C53.7403 48.0457 53.4224 48.2836 53.1045 48.5215C53.0515 48.5612 53.0515 48.5612 52.9985 48.6008C51.9784 49.4468 50.9584 50.2928 50.4015 51.2055C50.2292 51.417 50.0569 51.6286 49.9773 51.8535C49.9639 51.9462 49.9109 51.9858 49.8976 52.0785C49.8313 52.2107 49.765 52.343 49.6986 52.4753L49.5126 53.1104C49.4993 53.2031 49.486 53.2957 49.433 53.3354C49.3667 53.4676 49.393 53.6133 49.3267 53.7455C49.313 54.1691 49.2859 54.6852 49.4045 55.1751C49.5098 55.7576 49.8137 56.2741 49.9589 56.5787C50.461 57.3601 51.0958 57.877 52.0218 58.3412C52.8155 58.7392 53.9534 59.0448 55.4489 59.1655L56.4813 59.2196C56.7195 59.2066 56.9048 59.2333 57.143 59.2203C57.2887 59.194 57.3813 59.2073 57.5269 59.181C58.0431 59.208 58.6122 59.1954 59.1417 59.1298C59.2874 59.1035 59.5256 59.0905 59.7109 59.1172L60.2404 59.0516L61.1538 58.9467L61.9215 58.8681C62.5436 58.8158 63.1658 58.7636 63.8012 58.6187C63.8542 58.579 63.9469 58.5923 63.9469 58.5923C64.5293 58.4871 65.2971 58.4085 66.1178 58.2903C68.8316 57.8299 72.3795 57.1588 75.9937 56.3553C76.4043 56.1307 76.7619 55.9458 77.2121 55.7742C73.4522 56.604 69.944 57.3282 66.7403 57.9071C65.3371 58.1306 64.0265 58.3674 62.7293 58.5116C62.1071 58.5639 61.432 58.6558 60.8495 58.7611L60.373 58.787L60.1348 58.8L59.7509 58.8393C59.2214 58.9049 58.7052 58.8779 58.1757 58.9435C56.0844 59.0206 54.258 58.8995 53.0011 58.4349C51.6913 58.01 50.8846 57.3738 50.3295 56.632C49.7744 55.8902 49.4182 54.7515 49.4719 54.0501C49.486 53.2957 49.7513 52.7666 49.8709 52.2637C50.0832 51.7742 50.2292 51.417 50.4545 51.1658C50.6268 50.9542 50.7461 50.7823 50.7461 50.7823C50.8654 50.6103 51.0377 50.3988 51.263 50.1475L51.8195 49.5658C52.2567 49.1559 52.7336 48.7991 53.1708 48.3892C53.6477 48.0324 54.1775 47.6359 54.694 47.332C55.1576 47.0678 55.6344 46.711 56.098 46.4468L56.4159 46.2089L56.6278 46.0503L57.0914 45.786C57.3959 45.6408 57.6609 45.4425 57.9654 45.2973C58.535 44.9538 59.1441 44.6632 59.6606 44.3594C61.8723 43.1176 64.0574 42.0611 66.0968 41.0309C70.0296 39.3278 73.7108 37.7302 76.7829 36.4232C79.855 35.1162 82.3179 34.0997 84.0128 33.4927C85.7209 32.793 86.6213 32.4499 86.6213 32.4499C95.7713 28.6611 102.921 25.9555 108.469 23.8703C114.017 21.785 117.91 20.3598 120.651 19.3833C126.133 17.4303 127.02 17.1798 127.02 17.1798L127.787 18.0939L126.951 19.6283L127.042 21.2961C127.821 23.1103 126.154 22.5393 126.154 22.5393C112.873 27.1045 100.202 31.7101 88.2582 36.515C82.2466 38.8645 76.4204 41.2406 70.8587 43.7494C68.0778 45.0038 65.3366 46.3111 62.7277 47.6848C61.4034 48.3452 60.1188 49.0585 58.8738 49.8248L58.0527 50.274C57.8408 50.4326 57.5362 50.5778 57.3773 50.6968C56.9137 50.961 56.4898 51.2782 56.013 51.635C55.5891 51.9522 55.1122 52.3091 54.7676 52.7323C54.5953 52.9439 54.423 53.1554 54.2904 53.42C54.1578 53.6846 54.2104 53.9758 54.316 54.2274C54.5802 54.6909 55.1757 54.8239 55.6785 54.9436C56.1813 55.0633 56.6975 55.0903 57.3063 55.1307C57.8224 55.1577 58.3916 55.1451 58.9607 55.1325L59.7681 55.1069L60.7742 55.0153C62.164 54.8844 63.4613 54.7402 64.8115 54.5564C70.1728 53.768 75.2829 52.7544 80.221 51.6215C83.8882 50.7783 87.4098 49.9615 90.7991 49.0784C94.1098 47.4275 97.4601 45.8296 100.718 44.2184C101.486 43.8089 102.704 43.2279 105.803 41.7356L105.843 41.7885L105.975 42.1858L106.832 44.4368C106.885 44.3971 107.031 44.3708 107.084 44.3311L107.493 45.4301C107.44 45.4698 107.295 45.4961 107.242 45.5358L108.1 47.7867L108.231 48.184C105.861 48.8829 100.38 50.505 93.6412 52.3242C85.4306 56.4846 75.8428 61.345 66.8374 66.1001C52.4155 73.6686 40.6816 80.3002 38.6552 81.5687C40.6816 80.3002 52.4155 73.6686 66.8374 66.1001C75.8428 61.345 85.3777 56.5242 93.5883 52.3639C92.7012 52.6144 91.7745 52.8119 90.8344 53.1021C81.0613 57.9358 73.1419 62.0435 67.0104 65.2267C57.8064 70.0478 53.0121 72.8089 53.0121 72.8089C42.2189 78.4886 36.4049 81.7648 33.3588 83.5483C35.0806 82.4251 37.5176 80.9321 39.9016 79.4788C42.6961 77.8008 45.4773 76.2156 46.9739 75.3436L42.1266 78.1444C38.6833 80.0598 35.1869 82.0149 31.7302 84.023C33.8097 82.7149 35.9287 81.4598 38.0478 80.2047C36.154 81.2086 31.8232 83.7055 27.9427 86.0307C26.0222 87.2199 24.2077 88.3297 22.9494 89.1887C21.6515 89.9947 20.8567 90.5894 20.8567 90.5894C22.8701 89.0827 28.7775 85.1581 36.6709 80.5738C44.5776 75.8969 54.4838 70.4678 64.1646 65.2898C71.1836 61.5252 78.1759 57.9459 84.1485 54.8817C83.6587 55.0003 83.1158 55.1585 82.626 55.2771C77.4215 57.9319 71.4489 60.9961 65.3173 64.1793C55.5572 69.2512 46.5251 74.1916 39.2145 78.3398C30.7253 83.1219 24.5004 86.9535 21.5202 88.9357C24.5004 86.9535 30.7253 83.1219 39.2145 78.3398C46.5251 74.1916 55.5968 69.3042 65.357 64.2323C71.4885 61.0491 77.4611 57.9849 82.6126 55.3698C82.3214 55.4224 82.0698 55.528 81.7786 55.5806C73.8859 59.5031 64.6026 64.2182 55.5838 69.066C45.1878 74.6137 35.1624 80.2148 27.7722 84.5879C24.0902 86.8472 21.0837 88.6837 18.991 90.0844C17.9446 90.7848 17.1102 91.3266 16.5803 91.7231C16.0505 92.1196 15.7459 92.2648 15.7459 92.2648C16.1168 91.9873 16.7526 91.5115 17.6004 90.8771C18.4481 90.2427 19.6005 89.463 20.9648 88.5248C23.68 86.7409 27.2693 84.4682 31.4545 81.9977C39.7851 77.0036 50.5653 71.0856 61.2659 65.3926C67.3048 62.1961 73.3438 58.9996 78.8528 56.1995C78.5086 56.2918 78.2173 56.3444 77.8731 56.4367C70.8278 60.0557 63.0144 64.0841 55.2803 68.2186C44.2222 74.0965 33.4683 80.1601 25.5349 85.0222C21.5483 87.4268 18.3166 89.5146 16.1045 91.0872C15.0052 91.8273 14.1044 92.5013 13.5216 92.9374C12.9387 93.3736 12.6208 93.6115 12.6208 93.6115C13.9588 92.5276 17.8267 89.6332 23.5881 86.0658C29.4025 82.4587 37.0839 78.033 45.9174 73.1586C55.466 67.9143 66.3518 62.248 77.5289 56.529C76.9464 56.6343 76.4036 56.7925 75.8211 56.8978C73.4771 58.0732 71.2258 59.262 68.9877 60.3581C58.5258 65.7073 50.1162 70.2645 47.2424 71.8365C47.2424 71.8365 45.6002 72.7347 42.9383 74.1481L42.5807 74.333C39.9585 75.7993 36.3695 77.7411 32.3963 80.053C29.0456 81.9818 24.079 84.9545 19.1784 88.1258C18.0261 88.9054 16.9797 89.6058 15.8803 90.3458C14.9929 90.9272 14.1451 91.5616 13.3503 92.1564C13.1384 92.315 12.9265 92.4736 12.7145 92.6322C12.6615 92.6718 12.5556 92.7511 12.5026 92.7908C12.0787 93.1079 11.6548 93.4251 11.2706 93.7953L11.2176 93.835C11.0586 93.9539 10.8467 94.1125 10.6877 94.2315C10.3698 94.4694 10.0519 94.7073 9.72067 95.0378L9.33643 95.408C9.17747 95.5269 8.84623 95.8575 8.47532 96.135C8.02478 96.6375 7.57422 97.14 7.12366 97.6424C7.6272 97.1003 8.07776 96.5978 8.47532 96.135ZM60.1211 59.2235L59.5916 59.2891C59.4063 59.2625 59.2077 59.3284 59.0224 59.3018C58.4929 59.3674 57.9238 59.38 57.4076 59.353C57.262 59.3793 57.1694 59.3659 57.0237 59.3922C56.7855 59.4052 56.5472 59.4182 56.362 59.3915L55.3296 59.3375C53.8871 59.1771 52.6962 58.9111 51.9025 58.5132C50.9765 58.0489 50.3021 57.4791 49.8396 56.7506C49.6017 56.4327 49.3905 55.9295 49.2852 55.347C49.1666 54.8572 49.1937 54.341 49.2074 53.9175C49.234 53.7322 49.2474 53.6396 49.3137 53.5073C49.327 53.4146 49.3404 53.322 49.3933 53.2824L49.5927 52.5546C49.659 52.4223 49.7253 52.29 49.7916 52.1578C49.805 52.0651 49.8579 52.0255 49.8713 51.9328C49.9509 51.7079 50.1232 51.4963 50.2955 51.2848C50.8524 50.3721 51.8725 49.5261 52.8925 48.6801C52.9455 48.6405 52.9455 48.6405 52.9985 48.6008C53.3164 48.3629 53.6343 48.125 53.9522 47.8871C54.1642 47.7285 54.3231 47.6096 54.5351 47.451L56.098 46.4468C58.8925 44.7688 61.647 43.3688 63.938 42.233C66.282 41.0576 68.8113 39.9088 71.6451 38.6148C81.7621 34.0197 91.2033 30.1783 99.916 26.7994C106.484 24.199 113.131 21.7047 120.175 19.0784C123.022 18.0226 125.167 17.244 126.464 16.7689C125.074 17.2307 122.731 18.0752 119.738 19.1573C113.051 21.5987 106.457 24.0534 100.155 26.4555C90.9917 30.006 83.2587 33.1477 76.4524 36.092C72.215 37.9404 68.5204 39.6306 65.3157 41.2021C63.4882 42.0737 61.846 42.972 60.3628 43.7513C59.5947 44.1608 58.8266 44.5702 58.0981 45.0327C57.7405 45.2176 57.3696 45.4952 57.0121 45.6801C56.9061 45.7594 56.8001 45.8387 56.6545 45.865L56.191 46.1292L55.8201 46.4067C55.8201 46.4067 55.5551 46.605 54.9856 46.9485L54.5221 47.2127L54.2572 47.411C54.1512 47.4903 54.0452 47.5696 53.9393 47.6489L53.8863 47.6885C53.7803 47.7678 53.6214 47.8868 53.5154 47.9661C53.1975 48.204 52.8796 48.4419 52.5087 48.7194L52.2437 48.9177C52.0848 49.0366 51.8728 49.1952 51.7535 49.3671C51.5416 49.5258 51.4223 49.6977 51.2633 49.8166C51.1573 49.8959 51.091 50.0282 50.9851 50.1075C50.8261 50.2265 50.7598 50.3588 50.6008 50.4777C50.4948 50.557 50.4815 50.6496 50.3755 50.7289C50.3226 50.7686 50.3092 50.8612 50.2562 50.9009C50.2032 50.9405 50.1369 51.0728 50.0839 51.1125C49.9117 51.324 49.7394 51.5356 49.7127 51.7209L49.6597 51.7606C49.5271 52.0251 49.3944 52.2897 49.3014 52.6072C49.2218 52.8322 49.1288 53.1497 49.0888 53.4276L49.0754 53.5203C49.0488 53.7055 49.0751 53.8512 49.0484 54.0364C49.0217 54.2217 49.0877 54.4203 49.061 54.6056C49.1137 54.8968 49.2323 55.3867 49.4038 55.8369C49.8133 56.605 50.2495 57.1878 50.9768 57.718C51.6646 58.1953 52.6039 58.5669 53.7419 58.8725C54.8931 59.0855 56.2563 59.1399 57.8182 59.1284C58.6915 59.3014 59.446 59.3154 60.1211 59.2235L60.452 59.2239L60.1211 59.2235ZM68.4211 58.0545C69.4934 57.8307 70.6054 57.6598 71.8234 57.4096C73.1869 57.1332 74.5505 56.8567 75.9141 56.5802C75.9141 56.5802 75.9141 56.5802 75.9671 56.5406C73.2796 57.1465 70.698 57.6731 68.4211 58.0545ZM76.0597 56.5539C76.1523 56.5672 76.2583 56.4879 76.3509 56.5013C76.8408 56.3827 77.2777 56.3037 77.7675 56.1851C78.1781 55.9606 78.5886 55.736 78.9858 55.6041C78.4033 55.7093 77.8605 55.8676 77.225 56.0125C76.8278 56.1444 76.4702 56.3293 76.0597 56.5539ZM101.51 45.9399C101.312 46.0058 101.113 46.0718 100.967 46.0981C100.464 46.3093 99.855 46.5999 99.1002 46.9167C99.4444 46.8244 99.7357 46.7718 100.08 46.6795C100.636 46.4287 101.153 46.1248 101.51 45.9399ZM103.405 43.6124C102.346 44.0745 98.5454 45.844 93.0497 48.5514C93.3013 48.4458 93.5396 48.4328 93.7912 48.3272C99.6974 45.3953 103.405 43.6124 103.405 43.6124ZM102.265 45.623C101.96 45.7683 101.563 45.9002 101.007 46.1511C101.206 46.0851 101.351 46.0588 101.55 45.9929C102.013 45.7286 102.265 45.623 102.265 45.623ZM108.152 47.7471C103.902 49.0264 99.6658 50.213 95.6277 51.3337C95.0715 51.5846 94.555 51.8884 93.9988 52.1393C98.6194 50.9134 103.399 49.5685 108.284 48.1443L108.152 47.7471ZM95.535 51.3203C94.648 51.5709 93.6683 51.8081 92.7812 52.0586C92.2251 52.3094 91.7085 52.6133 91.2053 52.8245C92.0924 52.574 93.0191 52.3765 93.9592 52.0863C94.5153 51.8354 95.0185 51.6242 95.535 51.3203ZM85.857 53.8512C85.804 53.8908 85.7114 53.8775 85.7114 53.8775C85.2216 53.9961 84.7847 54.075 84.3345 54.2466C83.9239 54.4711 83.4208 54.6824 83.0102 54.9069C83.5001 54.7883 84.0429 54.6301 84.5327 54.5115C84.9829 54.3399 85.3935 54.1154 85.857 53.8512ZM84.2815 54.2862C83.9903 54.3389 83.7387 54.4445 83.5004 54.4574C83.0899 54.682 82.5867 54.8932 82.1232 55.1575C82.4144 55.1048 82.666 54.9992 82.9572 54.9466C83.3678 54.722 83.7783 54.4975 84.2815 54.2862ZM80.2171 55.2613C79.8729 55.3536 79.5816 55.4062 79.2374 55.4985C78.8269 55.723 78.4163 55.9476 78.0191 56.0795C78.3633 55.9872 78.6546 55.9346 78.9988 55.8423C79.449 55.6708 79.8595 55.4462 80.2171 55.2613ZM92.7585 48.604C97.2345 46.4117 101.618 44.2061 105.935 42.1328L105.803 41.7356C101.022 44.0731 95.9372 46.5559 90.8521 49.0388C91.5272 48.9468 92.1627 48.8019 92.7585 48.604ZM101.168 44.0468C102.744 43.2808 104.32 42.5149 105.843 41.7885C103.207 43.0166 101.936 43.6373 101.168 44.0468ZM107.599 45.3508L107.19 44.2518C107.137 44.2915 106.991 44.3178 106.938 44.3575L107.07 44.7547C107.123 44.715 107.216 44.7284 107.322 44.6491L107.467 44.9536C107.414 44.9933 107.361 45.0329 107.216 45.0592L107.348 45.4565C107.44 45.4698 107.493 45.4301 107.599 45.3508ZM108.284 48.1443C103.399 49.5685 98.6194 50.9134 93.9458 52.1789C93.8928 52.2186 93.8399 52.2582 93.7472 52.2449C100.526 50.4786 105.914 48.8432 108.284 48.1443ZM93.6942 52.2846C93.7472 52.2449 93.8002 52.2053 93.8928 52.2186C93.0058 52.4691 92.0261 52.7063 91.139 52.9568C91.086 52.9965 91.0331 53.0361 90.9404 53.0228C91.8805 52.7326 92.8602 52.4954 93.6942 52.2846ZM84.3208 54.6701C84.3738 54.6305 84.3738 54.6305 84.4268 54.5908C83.9369 54.7094 83.3941 54.8676 82.9042 54.9862C82.8513 55.0259 82.8513 55.0259 82.7983 55.0655C83.3411 54.9073 83.831 54.7887 84.3208 54.6701ZM82.7586 55.0125C82.8116 54.9729 82.8116 54.9729 82.8646 54.9332C82.5734 54.9859 82.3218 55.0915 82.0305 55.1441C81.9775 55.1838 81.9775 55.1838 81.9245 55.2234C82.2158 55.1708 82.507 55.1182 82.7586 55.0125ZM78.8928 55.9216L78.9458 55.882C78.6016 55.9743 78.3103 56.0269 77.9661 56.1192L77.9131 56.1588C78.2574 56.0665 78.5486 56.0139 78.8928 55.9216ZM77.6219 56.2114C77.6749 56.1718 77.6749 56.1718 77.6219 56.2114C77.185 56.2904 76.7482 56.3693 76.3113 56.4483C76.1657 56.4746 76.1127 56.5142 75.9671 56.5406C75.9671 56.5406 75.9671 56.5406 75.9141 56.5802C76.4966 56.4749 77.0791 56.3697 77.6219 56.2114Z" fill="url(#paint1_radial_123_1438)" fill-opacity="0.53"/>
<defs>
<radialGradient id="paint0_radial_123_1438" cx="0" cy="0" r="1" gradientUnits="userSpaceOnUse" gradientTransform="translate(33.2278 83.5012) rotate(146.715) scale(3.452 3.47931)">
<stop stop-color="#03E2E2"/>
<stop offset="0.0001" stop-color="#50FFFF"/>
<stop offset="1" stop-color="#0085FF" stop-opacity="0"/>
</radialGradient>
<radialGradient id="paint1_radial_123_1438" cx="0" cy="0" r="1" gradientUnits="userSpaceOnUse" gradientTransform="translate(120.607 24.3659) rotate(152.174) scale(136.436 345.803)">
<stop stop-color="#03E2E2"/>
<stop offset="0.0001" stop-color="#50FFFF"/>
<stop offset="1" stop-color="#0085FF" stop-opacity="0"/>
</radialGradient>
</defs>
</svg>
