<svg width="64" height="55" viewBox="0 0 64 55" fill="none" xmlns="http://www.w3.org/2000/svg">
<g filter="url(#filter0_bd_123_2911)">
<rect x="9" y="3" width="45.8708" height="37.5306" rx="18.7653" fill="white"/>
<path d="M22.0321 21.2737C21.7607 21.5451 21.7607 21.9852 22.0321 22.2566L26.4551 26.6796C26.7265 26.951 27.1666 26.951 27.438 26.6796C27.7094 26.4082 27.7094 25.9681 27.438 25.6967L23.5064 21.7651L27.438 17.8336C27.7094 17.5621 27.7094 17.1221 27.438 16.8507C27.1666 16.5792 26.7265 16.5792 26.4551 16.8507L22.0321 21.2737ZM41.3474 21.0701L22.5235 21.0701L22.5235 22.4601L41.3474 22.4601L41.3474 21.0701Z" fill="#494949"/>
<rect x="9.69501" y="3.69501" width="44.4808" height="36.1406" rx="18.0703" stroke="white" stroke-opacity="0.47" stroke-width="1.39002"/>
</g>
<defs>
<filter id="filter0_bd_123_2911" x="-4.90024" y="-10.9002" width="73.6713" height="65.5511" filterUnits="userSpaceOnUse" color-interpolation-filters="sRGB">
<feFlood flood-opacity="0" result="BackgroundImageFix"/>
<feGaussianBlur in="BackgroundImage" stdDeviation="6.95012"/>
<feComposite in2="SourceAlpha" operator="in" result="effect1_backgroundBlur_123_2911"/>
<feColorMatrix in="SourceAlpha" type="matrix" values="0 0 0 0 0 0 0 0 0 0 0 0 0 0 0 0 0 0 127 0" result="hardAlpha"/>
<feOffset dy="5.56009"/>
<feGaussianBlur stdDeviation="4.28"/>
<feComposite in2="hardAlpha" operator="out"/>
<feColorMatrix type="matrix" values="0 0 0 0 0.311743 0 0 0 0 0.332531 0 0 0 0 0.441667 0 0 0 0.12 0"/>
<feBlend mode="normal" in2="effect1_backgroundBlur_123_2911" result="effect2_dropShadow_123_2911"/>
<feBlend mode="normal" in="SourceGraphic" in2="effect2_dropShadow_123_2911" result="shape"/>
</filter>
</defs>
</svg>
