<svg width="154" height="167" viewBox="0 0 154 167" fill="none" xmlns="http://www.w3.org/2000/svg">
<rect x="0.120605" y="31.9609" width="71.9987" height="73.3414" rx="8" transform="rotate(-25.5898 0.120605 31.9609)" fill="#E9EBF6"/>
<path d="M116.463 12.1871L116.465 12.1863C117.37 11.836 118.346 11.9849 119.234 12.5975C120.134 13.2176 120.929 14.3129 121.33 15.775L152.746 130.815L152.746 130.815C153.146 132.28 153.054 133.763 152.604 134.964C152.152 136.17 151.372 137.021 150.445 137.377L150.444 137.378L76.5411 165.816C75.6348 166.164 74.656 166.014 73.7661 165.401C72.8659 164.781 72.0713 163.687 71.6741 162.223L71.6737 162.221L40.2507 47.1812C40.2507 47.181 40.2506 47.1807 40.2505 47.1805C39.8538 45.7207 39.9471 44.2373 40.3976 43.0339C40.8504 41.8247 41.6298 40.9728 42.5525 40.6173L116.463 12.1871Z" fill="url(#paint0_linear_60885_344)"/>
<path d="M116.463 12.1871L116.465 12.1863C117.37 11.836 118.346 11.9849 119.234 12.5975C120.134 13.2176 120.929 14.3129 121.33 15.775L152.746 130.815L152.746 130.815C153.146 132.28 153.054 133.763 152.604 134.964C152.152 136.17 151.372 137.021 150.445 137.377L150.444 137.378L76.5411 165.816C75.6348 166.164 74.656 166.014 73.7661 165.401C72.8659 164.781 72.0713 163.687 71.6741 162.223L71.6737 162.221L40.2507 47.1812C40.2507 47.181 40.2506 47.1807 40.2505 47.1805C39.8538 45.7207 39.9471 44.2373 40.3976 43.0339C40.8504 41.8247 41.6298 40.9728 42.5525 40.6173L116.463 12.1871Z" stroke="url(#paint1_linear_60885_344)" stroke-width="2"/>
<path d="M116.463 12.1871L116.465 12.1863C117.37 11.836 118.346 11.9849 119.234 12.5975C120.134 13.2176 120.929 14.3129 121.33 15.775L152.746 130.815L152.746 130.815C153.146 132.28 153.054 133.763 152.604 134.964C152.152 136.17 151.372 137.021 150.445 137.377L150.444 137.378L76.5411 165.816C75.6348 166.164 74.656 166.014 73.7661 165.401C72.8659 164.781 72.0713 163.687 71.6741 162.223L71.6737 162.221L40.2507 47.1812C40.2507 47.181 40.2506 47.1807 40.2505 47.1805C39.8538 45.7207 39.9471 44.2373 40.3976 43.0339C40.8504 41.8247 41.6298 40.9728 42.5525 40.6173L116.463 12.1871Z" stroke="url(#paint2_linear_60885_344)" stroke-opacity="0.3" stroke-width="2"/>
<defs>
<linearGradient id="paint0_linear_60885_344" x1="124.004" y1="46.3127" x2="185.086" y2="163.866" gradientUnits="userSpaceOnUse">
<stop stop-color="#F0F5FA" stop-opacity="0.45"/>
<stop offset="1" stop-color="#A5C2EA" stop-opacity="0"/>
</linearGradient>
<linearGradient id="paint1_linear_60885_344" x1="73.7713" y1="21.445" x2="60.0662" y2="87.1551" gradientUnits="userSpaceOnUse">
<stop offset="0.248777" stop-color="white"/>
<stop offset="1" stop-color="white" stop-opacity="0"/>
</linearGradient>
<linearGradient id="paint2_linear_60885_344" x1="116.944" y1="126.151" x2="136.772" y2="73.2625" gradientUnits="userSpaceOnUse">
<stop stop-color="#CBDBF1"/>
<stop offset="1" stop-color="white" stop-opacity="0"/>
</linearGradient>
</defs>
</svg>
